<svg width="1600" height="1491" viewBox="0 0 1600 1491" fill="none" xmlns="http://www.w3.org/2000/svg">
<path fill-rule="evenodd" clip-rule="evenodd" d="M611.556 675.758C728.779 586.117 773.6 475.789 659.825 334.431C598.783 267.84 544.998 223.02 498.47 184.247C429.367 126.663 376.272 82.4172 339.185 0C294.886 61.6319 270.23 110.328 332.289 196.521C315.768 195.617 304.672 184.161 284.021 158.596C145.189 190.444 84.0516 175.835 28.8877 99.9846C3.32323 169.117 2.55378 209.161 59.9174 286.163C66.9391 306.132 62.7315 322.553 39.231 362.013C-36.7418 489.58 -2.14191 730.922 221.961 789.533C442.617 824.011 604.661 568.878 411.587 448.207C325.394 406.834 232.305 489.58 263.334 596.46C32.3355 544.744 118.529 255.133 342.632 268.924C276.439 309.33 252.166 338.882 256.439 417.177C470.199 310.297 594.318 382.7 611.556 675.758ZM576.174 987.618C694.783 859.955 833.454 710.698 752.914 475.789C744.365 575.525 673.991 657.008 600.678 741.895C496.588 862.416 386.573 989.799 439.169 1186.02C453.695 1119.45 511.998 1056.69 576.174 987.618ZM987.103 675.758C869.879 586.117 825.059 475.789 938.834 334.431C999.875 267.842 1053.66 223.022 1100.19 184.25L1100.19 184.249L1100.19 184.248C1169.29 126.663 1222.39 82.4175 1259.47 0.000247821C1303.77 61.6321 1328.43 110.328 1266.37 196.522C1282.89 195.617 1293.99 184.162 1314.64 158.596C1453.47 190.445 1514.61 175.835 1569.77 99.9848C1595.34 169.118 1596.11 209.161 1538.74 286.163C1531.72 306.132 1535.93 322.553 1559.43 362.013C1635.4 489.58 1600.8 730.922 1376.7 789.534C1156.04 824.011 993.998 568.878 1187.07 448.207C1273.27 406.834 1366.35 489.58 1335.32 596.46C1566.32 544.744 1480.13 255.133 1256.03 268.924C1322.22 309.331 1346.49 338.882 1342.22 417.177C1128.46 310.297 1004.34 382.7 987.103 675.758ZM1022.49 987.618C903.876 859.955 765.205 710.698 845.745 475.789C854.294 575.525 924.668 657.008 997.981 741.895C1102.07 862.417 1212.09 989.799 1159.49 1186.02C1144.96 1119.45 1086.66 1056.69 1022.49 987.618Z" fill="#FAFAFA"/>
<path d="M6.66947 1352.98C6.66947 1341.66 8.89263 1331.63 13.3389 1322.87C17.92 1314.11 24.0505 1307.37 31.7305 1302.66C39.5453 1297.94 48.2358 1295.58 57.8021 1295.58C66.1558 1295.58 73.4316 1297.27 79.6295 1300.64C85.9621 1304 91.0147 1308.25 94.7874 1313.37V1297.4H123.284V1409.37H94.7874V1393C91.1495 1398.25 86.0969 1402.63 79.6295 1406.13C73.2968 1409.5 65.9537 1411.19 57.6 1411.19C48.1684 1411.19 39.5453 1408.76 31.7305 1403.91C24.0505 1399.06 17.92 1392.26 13.3389 1383.5C8.89263 1374.61 6.66947 1364.43 6.66947 1352.98ZM94.7874 1353.39C94.7874 1346.51 93.44 1340.65 90.7453 1335.8C88.0505 1330.82 84.4126 1327.04 79.8316 1324.48C75.2505 1321.79 70.3326 1320.44 65.0779 1320.44C59.8232 1320.44 54.9726 1321.72 50.5263 1324.28C46.08 1326.84 42.4421 1330.61 39.6126 1335.6C36.9179 1340.45 35.5705 1346.24 35.5705 1352.98C35.5705 1359.72 36.9179 1365.65 39.6126 1370.77C42.4421 1375.75 46.08 1379.59 50.5263 1382.29C55.1074 1384.98 59.9579 1386.33 65.0779 1386.33C70.3326 1386.33 75.2505 1385.05 79.8316 1382.49C84.4126 1379.79 88.0505 1376.02 90.7453 1371.17C93.44 1366.19 94.7874 1360.26 94.7874 1353.39ZM165.268 1284.06C160.283 1284.06 156.106 1282.51 152.738 1279.41C149.504 1276.18 147.887 1272.21 147.887 1267.49C147.887 1262.77 149.504 1258.87 152.738 1255.77C156.106 1252.53 160.283 1250.92 165.268 1250.92C170.254 1250.92 174.363 1252.53 177.597 1255.77C180.965 1258.87 182.649 1262.77 182.649 1267.49C182.649 1272.21 180.965 1276.18 177.597 1279.41C174.363 1282.51 170.254 1284.06 165.268 1284.06ZM179.214 1297.4V1409.37H150.919V1297.4H179.214ZM235.464 1314.78C239.102 1308.85 243.817 1304.21 249.611 1300.84C255.539 1297.47 262.276 1295.79 269.822 1295.79V1325.49H262.344C253.451 1325.49 246.714 1327.58 242.133 1331.76C237.687 1335.94 235.464 1343.21 235.464 1353.59V1409.37H207.169V1297.4H235.464V1314.78ZM351.387 1284.06C346.267 1284.06 342.023 1282.51 338.654 1279.41C335.421 1276.18 333.804 1272.21 333.804 1267.49C333.804 1262.77 335.421 1258.87 338.654 1255.77C342.023 1252.53 346.267 1250.92 351.387 1250.92C356.372 1250.92 360.482 1252.53 363.715 1255.77C366.949 1258.87 368.566 1262.77 368.566 1267.49C368.566 1272.21 366.949 1276.18 363.715 1279.41C360.482 1282.51 356.372 1284.06 351.387 1284.06ZM365.332 1427.76C365.332 1440.16 362.233 1449.05 356.035 1454.44C349.972 1459.96 341.214 1462.72 329.762 1462.72H317.231V1438.67H325.315C329.627 1438.67 332.658 1437.8 334.41 1436.05C336.162 1434.43 337.037 1431.73 337.037 1427.96V1297.4H365.332V1427.76ZM386.012 1352.98C386.012 1341.66 388.235 1331.63 392.681 1322.87C397.262 1314.11 403.393 1307.37 411.073 1302.66C418.887 1297.94 427.578 1295.58 437.144 1295.58C445.498 1295.58 452.774 1297.27 458.972 1300.64C465.304 1304 470.357 1308.25 474.13 1313.37V1297.4H502.626V1409.37H474.13V1393C470.492 1398.25 465.439 1402.63 458.972 1406.13C452.639 1409.5 445.296 1411.19 436.942 1411.19C427.511 1411.19 418.887 1408.76 411.073 1403.91C403.393 1399.06 397.262 1392.26 392.681 1383.5C388.235 1374.61 386.012 1364.43 386.012 1352.98ZM474.13 1353.39C474.13 1346.51 472.782 1340.65 470.087 1335.8C467.393 1330.82 463.755 1327.04 459.174 1324.48C454.593 1321.79 449.675 1320.44 444.42 1320.44C439.165 1320.44 434.315 1321.72 429.868 1324.28C425.422 1326.84 421.784 1330.61 418.955 1335.6C416.26 1340.45 414.913 1346.24 414.913 1352.98C414.913 1359.72 416.26 1365.65 418.955 1370.77C421.784 1375.75 425.422 1379.59 429.868 1382.29C434.45 1384.98 439.3 1386.33 444.42 1386.33C449.675 1386.33 454.593 1385.05 459.174 1382.49C463.755 1379.79 467.393 1376.02 470.087 1371.17C472.782 1366.19 474.13 1360.26 474.13 1353.39ZM669.309 1295.79C683.053 1295.79 694.101 1300.03 702.455 1308.52C710.943 1316.87 715.187 1328.59 715.187 1343.68V1409.37H686.893V1347.52C686.893 1338.77 684.669 1332.1 680.223 1327.52C675.777 1322.8 669.714 1320.44 662.034 1320.44C654.354 1320.44 648.223 1322.8 643.642 1327.52C639.196 1332.1 636.973 1338.77 636.973 1347.52V1409.37H608.678V1347.52C608.678 1338.77 606.455 1332.1 602.008 1327.52C597.562 1322.8 591.499 1320.44 583.819 1320.44C576.004 1320.44 569.806 1322.8 565.225 1327.52C560.779 1332.1 558.556 1338.77 558.556 1347.52V1409.37H530.261V1297.4H558.556V1310.94C562.194 1306.23 566.842 1302.52 572.501 1299.83C578.295 1297.13 584.627 1295.79 591.499 1295.79C600.257 1295.79 608.072 1297.67 614.943 1301.44C621.815 1305.08 627.137 1310.34 630.909 1317.21C634.547 1310.74 639.802 1305.55 646.674 1301.65C653.68 1297.74 661.225 1295.79 669.309 1295.79ZM770.332 1313.77C773.97 1308.38 778.955 1304 785.288 1300.64C791.755 1297.27 799.098 1295.58 807.317 1295.58C816.884 1295.58 825.507 1297.94 833.187 1302.66C841.002 1307.37 847.132 1314.11 851.578 1322.87C856.16 1331.49 858.45 1341.53 858.45 1352.98C858.45 1364.43 856.16 1374.61 851.578 1383.5C847.132 1392.26 841.002 1399.06 833.187 1403.91C825.507 1408.76 816.884 1411.19 807.317 1411.19C798.964 1411.19 791.621 1409.57 785.288 1406.34C779.09 1402.97 774.105 1398.66 770.332 1393.4V1409.37H742.037V1259.81H770.332V1313.77ZM829.549 1352.98C829.549 1346.24 828.134 1340.45 825.305 1335.6C822.61 1330.61 818.972 1326.84 814.391 1324.28C809.945 1321.72 805.094 1320.44 799.84 1320.44C794.72 1320.44 789.869 1321.79 785.288 1324.48C780.842 1327.04 777.204 1330.82 774.374 1335.8C771.68 1340.79 770.332 1346.65 770.332 1353.39C770.332 1360.12 771.68 1365.98 774.374 1370.97C777.204 1375.95 780.842 1379.79 785.288 1382.49C789.869 1385.05 794.72 1386.33 799.84 1386.33C805.094 1386.33 809.945 1384.98 814.391 1382.29C818.972 1379.59 822.61 1375.75 825.305 1370.77C828.134 1365.78 829.549 1359.85 829.549 1352.98ZM871.735 1352.98C871.735 1341.66 873.958 1331.63 878.405 1322.87C882.986 1314.11 889.116 1307.37 896.796 1302.66C904.611 1297.94 913.302 1295.58 922.868 1295.58C931.222 1295.58 938.497 1297.27 944.695 1300.64C951.028 1304 956.081 1308.25 959.853 1313.37V1297.4H988.35V1409.37H959.853V1393C956.215 1398.25 951.163 1402.63 944.695 1406.13C938.363 1409.5 931.02 1411.19 922.666 1411.19C913.234 1411.19 904.611 1408.76 896.796 1403.91C889.116 1399.06 882.986 1392.26 878.405 1383.5C873.958 1374.61 871.735 1364.43 871.735 1352.98ZM959.853 1353.39C959.853 1346.51 958.506 1340.65 955.811 1335.8C953.116 1330.82 949.478 1327.04 944.897 1324.48C940.316 1321.79 935.398 1320.44 930.144 1320.44C924.889 1320.44 920.038 1321.72 915.592 1324.28C911.146 1326.84 907.508 1330.61 904.678 1335.6C901.984 1340.45 900.636 1346.24 900.636 1352.98C900.636 1359.72 901.984 1365.65 904.678 1370.77C907.508 1375.75 911.146 1379.59 915.592 1382.29C920.173 1384.98 925.024 1386.33 930.144 1386.33C935.398 1386.33 940.316 1385.05 944.897 1382.49C949.478 1379.79 953.116 1376.02 955.811 1371.17C958.506 1366.19 959.853 1360.26 959.853 1353.39ZM1078.03 1295.79C1091.37 1295.79 1102.15 1300.03 1110.37 1308.52C1118.59 1316.87 1122.7 1328.59 1122.7 1343.68V1409.37H1094.4V1347.52C1094.4 1338.63 1092.18 1331.83 1087.73 1327.11C1083.29 1322.26 1077.22 1319.84 1069.54 1319.84C1061.73 1319.84 1055.53 1322.26 1050.95 1327.11C1046.5 1331.83 1044.28 1338.63 1044.28 1347.52V1409.37H1015.98V1297.4H1044.28V1311.35C1048.05 1306.5 1052.84 1302.72 1058.63 1300.03C1064.56 1297.2 1071.02 1295.79 1078.03 1295.79ZM1194.12 1398.25C1218.91 1379.66 1238.05 1363.02 1251.52 1348.33C1265.13 1333.51 1271.93 1319.03 1271.93 1304.88C1271.93 1295.58 1269.58 1288.17 1264.86 1282.65C1260.28 1276.99 1252.73 1274.16 1242.22 1274.16C1231.98 1274.16 1224.03 1277.39 1218.38 1283.86C1212.85 1290.19 1209.75 1298.68 1209.08 1309.33H1195.34C1196.14 1294.37 1200.73 1282.78 1209.08 1274.56C1217.57 1266.21 1228.62 1262.03 1242.22 1262.03C1255.29 1262.03 1265.87 1265.74 1273.95 1273.15C1282.04 1280.43 1286.08 1290.8 1286.08 1304.27C1286.08 1320.58 1279.28 1336.41 1265.67 1351.77C1252.19 1366.99 1235.55 1381.88 1215.75 1396.43H1290.53V1408.36H1194.12V1398.25ZM1312.61 1335.6C1312.61 1312.43 1316.18 1294.44 1323.32 1281.64C1330.46 1268.84 1343.26 1262.44 1361.72 1262.44C1380.18 1262.44 1392.98 1268.84 1400.12 1281.64C1407.26 1294.44 1410.83 1312.43 1410.83 1335.6C1410.83 1359.18 1407.26 1377.44 1400.12 1390.37C1392.98 1403.31 1380.18 1409.77 1361.72 1409.77C1343.13 1409.77 1330.26 1403.31 1323.12 1390.37C1316.11 1377.44 1312.61 1359.18 1312.61 1335.6ZM1396.89 1335.6C1396.89 1323.07 1396.01 1312.49 1394.26 1303.87C1392.51 1295.25 1389.07 1288.31 1383.95 1283.05C1378.83 1277.8 1371.42 1275.17 1361.72 1275.17C1352.02 1275.17 1344.61 1277.8 1339.49 1283.05C1334.37 1288.31 1330.93 1295.25 1329.18 1303.87C1327.43 1312.49 1326.56 1323.07 1326.56 1335.6C1326.56 1348.53 1327.43 1359.38 1329.18 1368.14C1330.93 1376.76 1334.37 1383.7 1339.49 1388.96C1344.61 1394.21 1352.02 1396.84 1361.72 1396.84C1371.42 1396.84 1378.83 1394.21 1383.95 1388.96C1389.07 1383.7 1392.51 1376.76 1394.26 1368.14C1396.01 1359.38 1396.89 1348.53 1396.89 1335.6ZM1434.32 1398.25C1459.11 1379.66 1478.24 1363.02 1491.72 1348.33C1505.33 1333.51 1512.13 1319.03 1512.13 1304.88C1512.13 1295.58 1509.77 1288.17 1505.06 1282.65C1500.48 1276.99 1492.93 1274.16 1482.42 1274.16C1472.18 1274.16 1464.23 1277.39 1458.57 1283.86C1453.05 1290.19 1449.95 1298.68 1449.28 1309.33H1435.53C1436.34 1294.37 1440.92 1282.78 1449.28 1274.56C1457.76 1266.21 1468.81 1262.03 1482.42 1262.03C1495.49 1262.03 1506.07 1265.74 1514.15 1273.15C1522.24 1280.43 1526.28 1290.8 1526.28 1304.27C1526.28 1320.58 1519.47 1336.41 1505.87 1351.77C1492.39 1366.99 1475.75 1381.88 1455.95 1396.43H1530.72V1408.36H1434.32V1398.25ZM1545.94 1277.19V1264.46H1580.29V1409.37H1565.94V1277.19H1545.94Z" fill="#FAFAFA"/>
</svg>
