<svg width="1122" height="852" viewBox="0 0 1122 852" fill="none" xmlns="http://www.w3.org/2000/svg">
<g clip-path="url(#clip0)">
<path opacity="0.1" d="M1004.08 658.708C994.67 698.867 976.169 739.96 942.575 762.86C941.352 763.71 940.091 764.522 938.84 765.316C936.972 766.456 935.104 767.558 933.236 768.594C932.751 768.865 932.302 769.117 931.779 769.37C927.691 771.48 923.466 773.314 919.134 774.861C887.1 786.414 850.321 782.65 817.232 772.769C811.031 770.901 804.885 768.875 798.806 766.68C793.977 764.952 789.186 763.131 784.404 761.263H784.292C783.536 760.973 782.77 760.675 782.023 760.329L779.539 759.395C775.13 757.639 770.731 755.852 766.342 754.034C761.168 751.914 756.003 749.776 750.839 747.665C735.98 741.594 721.046 735.748 705.702 731.05C699.323 729.098 692.869 727.314 686.388 725.764C667.046 721.029 647.359 717.742 627.653 714.669L617.445 713.1C607.078 711.503 596.646 709.915 586.195 708.552C575.324 707.132 564.425 705.955 553.508 705.302C532.961 704.041 512.414 704.582 492.26 708.636C476.944 711.718 462.019 716.78 447.282 722.645C399.875 741.492 354.421 768.482 304.39 763.925C279.454 761.655 255.984 751.531 233.252 741.043C200.63 726.007 168.082 709.7 139.653 688.136C131.628 682.085 123.969 675.564 116.716 668.607C116.51 668.43 116.314 668.234 116.118 668.047L115.95 667.879L115.726 667.664L115.361 667.309C110.001 662.079 104.911 656.597 100.036 650.919L95.646 645.689C88.6042 637.096 82.0293 628.103 75.7625 618.885L73.7546 615.971L72.6059 614.252C68.6958 608.35 64.8791 602.376 61.1558 596.33C55.4215 587.056 49.8552 577.651 44.345 568.312C34.9216 552.435 25.3207 536.035 22.0706 517.88C20.1807 507.005 20.3835 495.869 22.6684 485.07C23.5196 480.925 24.592 476.829 25.8811 472.799C26.0772 472.21 26.2547 471.64 26.4601 471.061C28.6471 464.622 31.2233 458.322 34.1744 452.196C54.4688 409.468 90.5654 368.534 89.2766 321.305C88.2586 284.881 65.097 253.529 47.539 221.607C29.9811 189.686 17.952 148.555 38.1997 118.249C55.3281 92.5283 89.0898 84.6272 119.742 80.6953C150.944 76.6159 182.376 74.5383 213.845 74.4753C237.688 74.3912 260.336 79.8641 283.703 80.6393C312.3 81.5732 343.989 68.2833 371.493 61.3815C403.371 53.3995 435.212 45.4237 467.016 37.4541C521.39 23.8374 576.389 10.1832 632.434 9.79099C688.48 9.39873 746.552 23.8 788.981 60.4196C803.513 72.981 816.223 88.3909 822.089 106.687C834.286 144.745 815.037 187.444 826.758 225.642C836.891 258.545 867.207 280.128 892.778 303.159C989.562 390.435 1033.84 531.87 1004.08 658.708Z" fill="#6C63FF"/>
<path d="M496.353 414.816C336.669 328.028 130.778 393.925 44.0249 553.674C96.9158 643.252 102.392 643.997 167.539 693.086C204.038 713.452 224.851 723.274 262.314 739.251C310.202 754.389 339.936 756.316 408.452 724.576C506.285 675.659 540.527 686.971 659.761 705.315L668.321 707.455V704.125C668.331 644.884 652.361 586.737 622.094 535.819C591.828 484.9 548.387 443.096 496.353 414.816Z" fill="#353354"/>
<path d="M829.985 499.903C758.497 476.145 681.023 477.544 610.441 503.866C596.782 508.977 579.365 514.967 559.176 521.767L664.652 706.538C709.702 715.953 733.498 725.156 775.326 743.225C845.949 773.734 935.221 790.919 984.749 697.366C996.488 673.425 1000.27 660.138 1005.23 636.526L1003.4 634.456C962.668 571.142 901.472 523.66 829.985 499.903Z" fill="#353354"/>
<path d="M424.962 336.023C424.962 347.423 424.488 358.304 423.542 368.666C411.308 503.882 321.47 552.144 212.481 552.144C209.747 552.144 207.043 552.114 204.34 552.038C198.902 551.932 193.51 551.675 188.194 551.297C139.272 547.835 95.4109 533.426 62.3486 504.26C56.7037 499.273 51.4192 493.892 46.5349 488.157C17.4147 454.002 0 404.56 0 336.023C0 224.636 102.706 92.1867 165.311 21.8044C171.046 15.3335 178.05 10.1135 185.887 6.46921C193.724 2.82495 202.226 0.834451 210.865 0.621604H211.469C220.552 0.457267 229.563 2.26582 237.88 5.9227C246.198 9.57957 253.625 14.9979 259.65 21.8044C288.159 53.7127 314.724 87.3089 339.202 122.411C384.68 188.258 424.962 266.275 424.962 336.023Z" fill="#8982FF"/>
<path d="M204.535 527.198L282.171 418.575L204.338 539.117L204.142 551.581L202.407 658.467L201.774 697.671H180.335L181.814 669.359L188.015 550.841L196.388 390.717L196.312 389.463L196.463 389.236L196.523 387.952L197.248 374.114L119.234 253.284L197.489 362.768L197.67 365.971L203.991 244.99L140.778 126.804L137.202 120.127L141.442 126.623L204.821 223.734L205.757 187.612L207.476 122.106L210.66 0.611328H211.263L210.599 122.106L210.328 170.691L251.515 122.106L276.815 92.2684L255.935 122.106L210.041 187.717L208.291 296.053L270.373 192.099L208.035 311.992L207.054 372.225L297.167 227.511L213.662 380.504L206.707 393.24L204.535 527.198Z" fill="#3F3D56"/>
<path d="M770.434 263.75C770.434 273.347 770.017 282.485 769.183 291.164C758.962 399.201 687.039 437.802 599.83 437.802C597.644 437.802 595.459 437.772 593.303 437.726C588.931 437.636 584.61 437.429 580.338 437.106C567.599 436.278 554.957 434.323 542.56 431.263C511.747 423.573 485.034 408.692 465.286 384.699C442.704 357.255 429.242 317.897 429.242 263.75C429.242 223.545 445.809 179.933 468.618 138.941C493.521 94.1788 525.872 52.5505 552.208 21.8817C557.942 15.1824 565.018 9.77195 572.974 6.003C580.93 2.23405 589.588 0.191278 598.383 0.0078777H598.986C608.17 -0.138077 617.273 1.7457 625.651 5.52575C634.03 9.30581 641.477 14.8896 647.467 21.8817C697.938 80.6306 770.434 179.646 770.434 263.75Z" fill="#8982FF"/>
<path d="M594.15 417.401L656.307 329.997L594 426.998L593.835 437.034L593.129 480.789L592.664 510.352L591.943 554.59H574.778L576.79 515.883L579.448 464.753L580.92 436.414L587.618 307.568L587.573 306.571L587.678 306.389L588.309 294.208L525.852 196.965L588.504 285.079L588.654 287.663L593.715 190.299L586.011 175.805H585.996L540.238 89.822L594.376 173.205L598.896 0H599.496L598.776 130.509L652.012 67.4081L598.565 144.217L597.965 181.004L597.154 231.394L620.761 191.66L646.861 147.739L623.449 192.99L596.943 244.226L596.163 292.696L649.489 206.622L668.321 176.243L651.276 207.62L595.892 309.609L594.15 417.401Z" fill="#3F3D56"/>
<path d="M1123.24 445.2C1123.24 531.724 1071.64 561.928 1007.98 561.928C1006.51 561.928 1005.04 561.913 1003.57 561.883C1000.62 561.807 997.704 561.687 994.815 561.46C981.331 560.667 968.04 557.888 955.374 553.212C918.172 538.962 892.725 505.969 892.725 445.2C892.73 441.321 892.952 437.444 893.391 433.589C895.524 414.182 902.725 393.931 912.559 374.253C918.197 363.071 924.449 352.207 931.288 341.712C940.003 328.231 949.367 315.459 958.46 303.954C964.211 296.647 971.525 290.711 979.868 286.576C988.211 282.442 997.374 280.214 1006.69 280.054C1006.9 280.054 1007.11 280.038 1007.34 280.054C1016.98 279.922 1026.53 282.01 1035.23 286.155C1043.93 290.301 1051.56 296.392 1057.51 303.954C1088.75 343.507 1123.24 397.867 1123.24 445.2Z" fill="#8982FF"/>
<path d="M1004.79 548.665L1046.66 489.967L1004.68 555.118L1004.57 561.858L1003.39 634.337L1003.28 640.806H991.724L992.866 618.928L995.872 561.436L1000.38 474.904L1000.34 474.226L1000.41 474.105L1000.85 465.933L958.762 400.616L1000.97 459.796L1001.07 461.53L1004.48 396.138L968.457 328.649L1004.94 384.679L1007.67 280.054C1007.88 280.054 1008.09 280.038 1008.32 280.054L1007.9 355.986L1043.77 313.602L1007.75 365.183L1006.8 423.745L1040.3 367.55L1006.66 432.355L1006.14 464.908L1054.76 386.699L1005.96 476.261L1004.79 548.665Z" fill="#3F3D56"/>
<path d="M278.466 359.849C278.466 359.849 291.514 421.032 289.932 424.94C288.35 428.848 335.942 489.011 335.942 489.011L389.908 424.075C389.908 424.075 375.385 346.03 378.878 341.961C382.37 337.893 278.466 359.849 278.466 359.849Z" fill="#FFB8B8"/>
<path opacity="0.1" d="M278.466 359.849C278.466 359.849 291.514 421.032 289.932 424.94C288.35 428.848 335.942 489.011 335.942 489.011L389.908 424.075C389.908 424.075 375.385 346.03 378.878 341.961C382.37 337.893 278.466 359.849 278.466 359.849Z" fill="black"/>
<path d="M353.335 396.178C391.002 382.313 410.08 341.121 395.945 304.173C381.811 267.225 339.817 248.512 302.149 262.376C264.481 276.241 245.404 317.433 259.538 354.381C273.673 391.329 315.667 410.042 353.335 396.178Z" fill="#FFB8B8"/>
<path d="M337.739 443.564L329.771 440.46L288.788 412.997C288.788 412.997 284.965 412.146 285.948 423.387L286.931 434.628L265.486 453.419L299.234 707.254L463.495 693.43L435.313 437.239L395.146 417.972L386.455 404.743L348.871 438.852L337.739 443.564Z" fill="white"/>
<path d="M263.231 738.943L269.957 740.472L478.158 690.027L503.477 446.608C503.477 446.608 479.741 439.156 464.61 442.316C464.61 442.316 430.336 424.443 418.888 425.403C407.423 426.369 386.357 405.503 386.357 405.503C386.357 405.503 390.453 452.338 380.032 487.185C369.611 522.031 369.414 629.635 369.414 629.635L293.053 460.533L287.911 412.837C282.717 419.176 278.472 426.21 275.304 433.726C270.55 445.437 252.612 460.154 252.612 460.154C252.612 460.154 203.662 494.48 194.432 499.042C185.214 503.58 181.717 507.659 181.717 507.659L191.74 552.754L197.418 578.301L263.231 738.943Z" fill="#2F2E41"/>
<path d="M256.722 639.12C259.936 653.945 259.939 720.001 259.939 720.001L257.636 725.006L255.4 729.866L173.361 515.415C173.954 513.983 174.86 512.697 176.014 511.646C177.726 510.074 179.644 508.733 181.717 507.659L189.373 507.011C189.373 507.011 253.501 624.278 256.722 639.12Z" fill="#2F2E41"/>
<path d="M442.862 655.534C442.862 655.534 453.825 582.893 485.041 587.815C516.256 592.737 490.285 647.768 490.285 647.768L442.862 655.534Z" fill="#FFB8B8"/>
<path d="M328.754 670.799C328.754 670.799 256.009 675.035 256.501 680.655C256.993 686.276 250.556 722.676 256.286 722.194C262.016 721.712 305.783 716.141 305.947 718.015C306.11 719.888 329.358 721.706 329.358 721.706L328.754 670.799Z" fill="#FFB8B8"/>
<path d="M383.089 433.867L342.214 450.738L332.664 451.542L289.455 441.748L290.864 479.595L333.483 460.909L343.033 460.105L388.275 471.396L383.089 433.867Z" fill="#6C63FF"/>
<path d="M349.764 669.031C349.764 669.031 324.606 667.373 324.77 669.247C324.934 671.12 314.734 730.486 322.374 729.843C330.014 729.2 359.156 732.409 359.156 732.409L349.764 669.031Z" fill="white"/>
<path d="M503.64 442.077L490.224 441.861C461.452 443.28 462.786 638.916 462.786 638.916C462.786 638.916 330.451 644.314 322.76 646.071C315.07 647.829 326.244 721.364 326.244 721.364L332.02 742.916L353.727 744.751C421.599 727.63 459.203 686.051 540.794 689.72C542.48 684.011 544.422 677.566 546.729 670.359C558.708 632.933 538.876 534.807 540.841 531.077C542.805 527.347 540.865 529.196 537.08 525.374C533.295 521.551 535.187 523.463 539.068 519.763C542.95 516.064 518.684 464.889 514.995 453.544C511.306 442.2 503.64 442.077 503.64 442.077Z" fill="#2F2E41"/>
<path d="M173.128 511.746L186.338 509.428C214.982 506.312 246.317 699.48 246.317 699.48L348.29 689.652L353.727 744.752C286.773 763.706 215.758 724.838 155.762 683.913C152.221 646.256 152.835 607.446 151.254 605.367C148.692 601.996 150.916 603.516 154.015 599.152C157.114 594.787 155.565 596.969 151.116 593.93C146.666 590.89 162.083 536.607 163.832 524.839C165.58 513.071 173.128 511.746 173.128 511.746Z" fill="#2F2E41"/>
<path d="M259.506 270.744L245.305 266.991C245.305 266.991 271.629 236.323 311.907 235.407L299.672 225.303C299.672 225.303 326.356 213.161 353.651 236.842C367.999 249.291 384.623 263.944 395.687 281.096L410.435 279.855L405.336 292.449L427.936 302.711L405.634 302.403C408.64 312.652 408.862 323.494 406.278 333.854L402.452 347.783C402.452 347.783 378.983 310.172 378.553 305.26L379.627 317.54C379.627 317.54 364.889 307.647 364.245 300.279L357.485 309.507L352.547 296.315L307.407 313.722L313.951 302.037L285.479 308.145L295.565 293.688C295.565 293.688 264.411 312.392 264.34 326.006C264.27 339.62 249.498 358.182 249.498 358.182L240.912 346.534C240.912 346.534 224.811 292.221 259.506 270.744Z" fill="#2F2E41"/>
<path d="M245.266 303.444L244.927 300.968C241.641 276.911 185.989 250.407 185.428 250.142L184.442 249.677L184.348 248.608C184.081 245.556 186.309 241.939 216.305 237.626C227.985 235.948 239.827 234.782 244.795 234.323C239.454 221.862 217.063 210.99 216.824 210.876L214.015 209.526L216.516 207.683C232.914 195.603 261.2 205.236 270.472 208.92L266.576 164.382L302.008 189.02C308.141 163.319 328.702 156.7 329.605 156.423L332.505 155.529L332.078 158.481C329.071 179.221 331.668 191.162 333.7 196.771C347.841 157.646 371.825 151.773 372.875 151.534L376.532 150.703L375.074 154.096C354.916 201.012 368.454 248.13 368.593 248.6L369.061 250.184L245.266 303.444ZM189.025 247.692C198.948 252.594 242.395 275.208 248.252 298.052L364.485 248.046C362.347 239.539 353.534 198.556 369.881 156.684C362.409 160.207 345.824 171.244 335.824 202.402L334.677 205.973L332.442 202.939C332.09 202.461 324.141 191.262 327.845 161.203C321.952 164.019 308.929 172.391 305.174 192.553L304.633 195.455L271.103 172.14L274.847 214.948L271.85 213.588C271.515 213.437 239.673 199.224 221.464 209.018C228.563 212.842 246.068 223.353 249.243 235.512L249.805 237.663L247.55 237.853C222.5 239.961 194.577 244.17 189.025 247.692Z" fill="#3A3865"/>
<path d="M378.27 138.964C376.915 139.078 375.556 138.796 374.365 138.152C373.173 137.509 372.204 136.533 371.578 135.349C370.952 134.164 370.698 132.824 370.848 131.499C370.998 130.173 371.546 128.92 372.422 127.9C373.298 126.879 374.463 126.137 375.769 125.766C377.075 125.394 378.465 125.412 379.761 125.815C381.057 126.218 382.203 126.989 383.052 128.031C383.902 129.073 384.417 130.338 384.533 131.668C384.687 133.449 384.114 135.218 382.94 136.586C381.766 137.954 380.086 138.81 378.27 138.964V138.964ZM377.422 129.271C376.823 129.321 376.252 129.545 375.782 129.914C375.312 130.282 374.964 130.78 374.782 131.342C374.6 131.905 374.593 132.507 374.76 133.074C374.928 133.641 375.263 134.147 375.723 134.527C376.183 134.907 376.748 135.145 377.346 135.21C377.944 135.275 378.548 135.165 379.082 134.893C379.617 134.622 380.057 134.201 380.347 133.684C380.637 133.167 380.765 132.577 380.713 131.989C380.643 131.201 380.258 130.472 379.641 129.962C379.024 129.453 378.226 129.204 377.422 129.271V129.271Z" fill="#3A3865"/>
<path d="M328.859 143.124C327.504 143.238 326.145 142.956 324.954 142.312C323.762 141.669 322.793 140.693 322.167 139.509C321.541 138.324 321.287 136.985 321.437 135.659C321.587 134.333 322.135 133.081 323.011 132.06C323.887 131.04 325.052 130.297 326.358 129.926C327.664 129.555 329.053 129.572 330.35 129.975C331.646 130.378 332.792 131.149 333.641 132.191C334.491 133.233 335.006 134.499 335.122 135.828C335.276 137.61 334.703 139.379 333.529 140.747C332.355 142.114 330.675 142.97 328.859 143.124V143.124ZM328.011 133.431C327.412 133.482 326.841 133.705 326.371 134.074C325.901 134.443 325.553 134.94 325.371 135.502C325.189 136.065 325.182 136.668 325.349 137.235C325.516 137.801 325.852 138.307 326.312 138.687C326.772 139.067 327.337 139.305 327.935 139.37C328.533 139.435 329.137 139.325 329.671 139.053C330.206 138.782 330.646 138.361 330.936 137.844C331.226 137.327 331.354 136.737 331.302 136.149C331.232 135.361 330.847 134.632 330.23 134.123C329.613 133.613 328.815 133.364 328.011 133.431V133.431Z" fill="#3A3865"/>
<path d="M258.273 161.271C256.918 161.385 255.559 161.102 254.367 160.459C253.176 159.815 252.206 158.839 251.58 157.655C250.954 156.471 250.7 155.131 250.851 153.805C251.001 152.479 251.549 151.227 252.425 150.207C253.301 149.186 254.465 148.443 255.772 148.072C257.078 147.701 258.467 147.718 259.763 148.121C261.06 148.525 262.205 149.296 263.055 150.338C263.904 151.38 264.419 152.645 264.536 153.974C264.69 155.756 264.117 157.525 262.942 158.893C261.768 160.261 260.089 161.116 258.273 161.271ZM257.425 151.578C256.825 151.628 256.254 151.852 255.785 152.22C255.315 152.589 254.967 153.086 254.785 153.649C254.603 154.211 254.595 154.814 254.763 155.381C254.93 155.948 255.265 156.453 255.725 156.833C256.186 157.214 256.75 157.451 257.348 157.517C257.946 157.582 258.551 157.472 259.085 157.2C259.619 156.928 260.059 156.507 260.349 155.99C260.64 155.473 260.767 154.884 260.716 154.296C260.646 153.508 260.26 152.779 259.643 152.269C259.026 151.76 258.228 151.511 257.425 151.578V151.578Z" fill="#3A3865"/>
<path d="M169.127 251.777C167.772 251.891 166.413 251.608 165.222 250.965C164.031 250.321 163.061 249.345 162.435 248.161C161.809 246.977 161.555 245.637 161.705 244.311C161.856 242.985 162.404 241.733 163.279 240.712C164.155 239.692 165.32 238.949 166.626 238.578C167.933 238.207 169.322 238.224 170.618 238.627C171.915 239.031 173.06 239.802 173.909 240.844C174.759 241.885 175.274 243.151 175.391 244.48C175.544 246.262 174.971 248.031 173.797 249.399C172.623 250.767 170.944 251.622 169.127 251.777V251.777ZM168.279 242.084C167.68 242.134 167.109 242.358 166.639 242.726C166.169 243.095 165.822 243.592 165.64 244.155C165.458 244.717 165.45 245.32 165.617 245.887C165.785 246.454 166.12 246.959 166.58 247.339C167.04 247.719 167.605 247.957 168.203 248.022C168.801 248.088 169.406 247.977 169.94 247.706C170.474 247.434 170.914 247.013 171.204 246.496C171.495 245.979 171.622 245.39 171.571 244.802C171.501 244.013 171.115 243.285 170.498 242.775C169.881 242.266 169.083 242.017 168.279 242.084V242.084Z" fill="#3A3865"/>
<path d="M200.112 207.667C198.757 207.781 197.398 207.499 196.207 206.855C195.016 206.212 194.046 205.236 193.42 204.052C192.794 202.867 192.54 201.528 192.691 200.202C192.841 198.876 193.389 197.623 194.265 196.603C195.14 195.583 196.305 194.84 197.612 194.469C198.918 194.098 200.307 194.115 201.603 194.518C202.9 194.921 204.045 195.692 204.894 196.734C205.744 197.776 206.259 199.041 206.376 200.371C206.529 202.152 205.956 203.921 204.782 205.289C203.608 206.657 201.929 207.512 200.112 207.667V207.667ZM199.265 197.974C198.665 198.025 198.094 198.248 197.624 198.617C197.155 198.986 196.807 199.483 196.625 200.045C196.443 200.608 196.435 201.211 196.603 201.777C196.77 202.344 197.105 202.85 197.565 203.23C198.026 203.61 198.59 203.848 199.188 203.913C199.786 203.978 200.391 203.868 200.925 203.596C201.459 203.325 201.899 202.904 202.189 202.387C202.48 201.87 202.607 201.28 202.556 200.692C202.486 199.904 202.1 199.175 201.483 198.666C200.866 198.156 200.068 197.907 199.265 197.974Z" fill="#3A3865"/>
<path d="M846.264 269.669C827.462 217.577 772.197 204.661 772.197 204.661C772.197 204.661 719.284 187.386 670.222 251.741C624.492 311.724 566.883 367.045 633.808 396.057L654.199 359.876L653.716 402.882C663.547 405.508 673.516 407.605 683.58 409.163C759.056 421.25 829.867 438.094 832.858 411.251C836.834 375.568 864.355 319.793 846.264 269.669Z" fill="#2F2E41"/>
<path d="M710.537 408.626C709.621 413.904 708.47 419.436 704.895 423.483C697.808 431.505 684.66 430.375 675.487 436.006C665.839 441.928 662.48 453.91 659.898 464.782C657.198 476.149 654.485 487.903 656.606 499.387C658.037 505.764 660.22 511.955 663.112 517.836C666.501 525.435 669.94 533.012 673.428 540.567C675.252 544.795 677.412 548.877 679.886 552.774C686.785 563.056 697.66 570.108 708.792 575.79C715.984 579.461 723.882 582.764 731.935 581.835C737.33 580.883 742.506 578.988 747.218 576.24C753.73 572.938 760.347 569.564 765.593 564.542C773.766 556.72 777.797 545.732 781.302 535.072C791.668 503.549 799.699 471.334 805.334 438.677C806.204 435.167 806.265 431.512 805.512 427.977C803.096 419.708 792.912 416.079 788.672 408.549C785.047 402.112 786.434 394.19 787.921 386.982L791.706 368.631C792.181 367.115 792.176 365.494 791.692 363.98C791.153 363.112 790.445 362.356 789.608 361.756C788.77 361.156 787.821 360.725 786.813 360.486C775.553 356.346 763.908 353.297 752.043 351.379C742.424 349.822 724.236 345.499 714.921 349.129C706.467 352.423 713.238 367.331 713.502 375.022C713.671 386.292 712.677 397.551 710.537 408.626Z" fill="#A0616A"/>
<path d="M738.805 381.312C780.612 389.373 821.165 362.665 829.384 321.658C837.602 280.65 810.374 240.872 768.568 232.81C726.762 224.748 686.209 251.456 677.99 292.464C669.771 333.471 696.999 373.25 738.805 381.312Z" fill="#A0616A"/>
<path d="M685.657 484.966C682.249 477.018 679.8 468.706 678.359 460.199C677.26 451.653 678.348 442.547 683.131 435.323C675.885 429.09 664.023 430.719 656.622 436.775C649.221 442.831 645.463 452.137 643.081 461.298C640.7 470.459 639.373 479.965 635.503 488.623C626.942 507.78 606.771 520.996 601.41 541.241C596.137 561.158 606.708 581.432 609.829 601.78C611.655 614.44 610.896 627.329 607.595 639.698C606.56 643.697 605.378 648.254 607.71 651.688C608.963 653.276 610.564 654.568 612.395 655.467C643.529 673.46 679.457 681.425 714.726 689.141L772.98 701.885C776.437 702.982 780.143 703.085 783.658 702.18C789.544 700.034 791.666 693.089 792.966 687.063C804.166 635.167 812.338 582.695 820.504 530.258C823.464 511.251 826.432 492.133 826.052 472.91C825.956 468.015 825.301 462.466 821.298 459.541C817.909 457.066 813.244 457.346 809.073 458.005C789.601 461.125 771.543 469.943 757.268 483.304C741.894 497.758 731.953 516.735 716.81 531.366C705.821 541.983 703.029 530.345 699.154 520.218C694.658 508.466 690.159 496.716 685.657 484.966Z" fill="white"/>
<path d="M686.373 434.428C684.694 435.09 683.024 435.813 681.405 436.603C675.351 439.503 669.732 443.07 664.67 447.225C656.272 454.201 649.081 462.282 643.323 471.213C633.061 486.836 626.478 504.251 620.049 521.541C617.486 527.873 615.482 534.393 614.056 541.043C609.579 565.634 621.119 591.437 616.224 615.967C616.037 616.898 615.834 617.807 615.585 618.726C614.588 622.704 613.262 626.599 611.617 630.379C609.285 635.906 606.451 641.259 603.641 646.597C596.578 659.974 589.08 673.808 578.353 684.679C577.272 685.786 576.132 686.863 574.98 687.898L517.075 676.732C517.78 675.572 518.502 674.434 519.207 673.274C534.346 648.863 549.476 624.456 564.598 600.054C569.229 592.592 573.868 585.092 577.656 577.234C582.138 567.494 585.877 557.468 588.846 547.226C595.447 526.081 601.277 504.742 606.337 483.21C608.166 475.478 609.946 467.562 614.216 460.726C618.038 455.221 622.637 450.206 627.904 445.802C635.504 438.854 643.104 431.906 650.704 424.958C654.937 421.093 659.361 417.13 665.053 415.307C669.808 413.767 675.067 413.892 679.975 412.768C683.102 411.866 686.15 410.767 689.097 409.479C696.701 406.477 705.528 403.479 710.459 408.995C711.26 409.881 711.902 410.873 712.361 411.934C712.6 412.458 712.801 412.994 712.963 413.54C716.367 425.492 694.839 431.089 686.373 434.428Z" fill="#2F2E41"/>
<path d="M823.738 737.601L555.557 685.886C557.186 685.264 558.802 684.596 560.382 683.891C560.617 683.79 560.831 683.685 561.066 683.584C572.778 678.309 576.901 669.844 583.942 661.4C589.235 655.033 594.526 648.671 599.817 642.313C600.706 641.049 601.969 639.955 603.534 639.095C604.812 638.523 606.332 638.221 607.941 638.218C609.16 638.199 610.398 638.281 611.63 638.462C613.387 638.72 615.135 639.057 616.862 639.471C664.646 650.44 712.321 661.775 759.888 673.473C766.027 674.993 772.166 676.514 778.305 678.034C782.858 681.574 787.318 685.258 791.519 689.052C805.187 701.343 816.456 714.882 821.579 729.299C822.196 731.042 822.725 732.797 823.103 734.553C823.372 735.57 823.576 736.589 823.738 737.601Z" fill="#2F2E41"/>
<path d="M834.719 262.771L785.356 223.883L707.044 220.796L677.669 285.881L717.104 291.952L733.053 269.035L728.121 293.647L746.317 296.448L764.783 258.629L762.834 302.304L827.293 313.398L834.719 262.771Z" fill="#2F2E41"/>
<path d="M823.91 736.741L763.359 725.065C763.172 723.745 763.01 722.411 762.868 721.081C761.383 706.328 761.09 691.529 761.991 676.803C762.172 672.579 762.439 668.352 762.744 664.152C762.934 661.485 763.142 658.841 763.353 656.179C765.673 626.598 768.856 596.893 764.642 567.336C764.135 563.757 763.52 560.177 762.948 556.604C761.805 550.424 761.188 544.186 761.102 537.948C761.202 523.731 766.032 509.921 766.045 495.707C766.046 487.772 764.353 480.464 763.916 473.106C763.591 468.654 764.005 464.203 765.144 459.904C770.363 456.956 776.477 455.521 782.703 455.783C784.855 455.868 787.262 456.079 788.827 454.806C789.803 453.795 790.402 452.525 790.544 451.169C792.459 442.366 793.669 433.428 794.164 424.426C794.366 421.276 794.464 418.105 794.455 414.933C794.465 414.78 794.45 414.641 794.459 414.487C799.903 413.475 805.594 414.553 811.07 415.628C817.043 416.8 822.999 417.948 828.951 419.115C839.966 421.278 850.982 423.435 862 425.586C872.254 427.582 882.844 429.722 891.401 435.359C900.239 441.205 906.017 450.313 909.145 459.784C912.273 469.256 913.016 479.162 913.521 488.964C913.663 491.677 913.48 494.387 912.975 497.046C909.205 518.218 887.578 536.101 881.521 557.318C879.563 564.195 878.793 571.359 876.69 578.207C874.584 585.075 871.142 591.529 869.366 598.46C869.274 598.812 869.179 599.182 869.107 599.538C867.052 608.613 868.199 618.111 869.868 627.36C872.445 641.723 876.242 655.894 880.261 670.029C884.135 683.709 888.185 697.365 891.529 711.118C893.41 717.565 894.215 724.206 893.919 730.813C893.537 736.097 891.403 741.103 887.797 745.171C886.881 746.172 885.843 747.074 884.702 747.861L884.654 747.891C884.43 748.042 884.206 748.194 883.986 748.326L823.91 736.741V736.741Z" fill="#2F2E41"/>
<path d="M880.775 751.919C880.006 754.44 878.754 756.8 877.08 758.887C876.93 759.099 876.784 759.292 876.634 759.503C874.905 761.917 874.029 764.382 872.241 766.764C871.365 767.919 868.861 766.206 867.961 767.376C854.678 766.781 847.578 765.715 835.248 763.096C836.73 762.124 837.36 761.525 838.679 760.366C845.298 754.564 849.998 746.867 856.828 740.544C857.757 739.678 858.783 738.908 859.888 738.246C870.026 732.139 884.412 736.558 880.775 751.919Z" fill="#FFB8B8"/>
<path d="M901.365 764.716C902.058 763.526 902.684 762.3 903.239 761.045C903.694 760.064 904.103 759.095 904.474 758.098C906.928 751.534 908.296 744.6 911.347 738.273C915.677 729.208 925.196 719.329 920.827 710.16C925.656 710.161 930.409 709.164 934.75 707.24C938.891 705.014 941.971 700.365 940.613 695.991C939.265 691.678 934.013 687.984 935.667 683.806C936.334 682.509 937.281 681.36 938.448 680.431C942.515 676.392 945.219 671.302 946.229 665.787C947.239 660.272 946.511 654.572 944.133 649.389C942.756 646.502 940.884 643.843 939.696 640.872C938.467 637.281 937.717 633.567 937.466 629.816C935.115 610.601 929.745 591.776 921.532 573.958C919.621 570.466 918.348 566.703 917.77 562.829C917.794 558.757 918.444 554.719 919.7 550.842C923.257 535.237 920.081 518.716 913.731 503.781C913.264 502.683 912.772 501.6 912.28 500.518C906.003 486.827 897.341 474.208 888.705 461.675C883.89 462.763 879.729 463.271 876.624 466.866C875.042 468.926 873.859 471.236 873.129 473.693C866.341 492.344 859.923 511.188 854.066 530.121C851.117 539.693 848.131 549.34 847.356 559.312C846.582 569.284 848.161 579.73 853.742 588.327C857.236 593.719 862.143 598.173 866.08 603.287C866.709 604.114 867.313 604.957 867.893 605.815C870.646 609.921 872.947 614.277 874.76 618.813C882.738 638.402 883.975 659.763 878.295 679.84C877.27 683.459 876.019 687.015 874.55 690.49C872.603 695.494 869.741 700.127 866.092 704.182C863.248 707.121 859.806 709.502 857.145 712.598C854.484 715.694 852.686 719.844 853.934 723.693C856.85 724.253 859.644 725.297 862.187 726.777C868.158 730.349 872.951 735.435 876.002 741.438C877.136 743.604 878.109 745.839 878.914 748.128C879.526 749.839 880.072 751.569 880.55 753.314C880.871 754.482 881.161 755.657 881.421 756.838C881.704 758.001 881.958 759.2 882.191 760.394C882.256 760.606 882.299 760.824 882.319 761.044L901.365 764.716Z" fill="#2F2E41"/>
<path d="M882.191 760.394C881.958 759.2 881.704 758.001 881.421 756.838C881.161 755.657 880.871 754.482 880.55 753.314L872.241 767.378C884.112 767.301 890.505 766.74 901.365 764.716L882.319 761.044C882.299 760.824 882.256 760.606 882.191 760.394Z" fill="#2F2E41"/>
<path d="M800.408 392.207L752.798 402.511L742.307 401.524L697.558 382.542L691.442 423.743L741.302 411.814L751.792 412.801L798.439 433.797L800.408 392.207Z" fill="#6C63FF"/>
<path d="M701.009 216.945L701.713 215.269C701.922 214.772 722.438 164.855 706.101 111.225L704.92 107.346L708.816 108.681C709.935 109.065 735.435 118.286 746.14 162.699C749.042 156.805 753.33 144.058 752.562 121.04L752.453 117.763L755.514 119.078C756.467 119.487 778.136 129.123 781.719 157.929L823.435 135.14L813.77 183.363C824.351 180.419 856.436 173.194 872.891 188.312L875.401 190.619L872.167 191.766C871.892 191.863 846.1 201.13 838.75 214.125C844.124 215.208 856.925 217.864 869.486 221.063C901.747 229.28 903.743 233.494 903.081 236.798L902.848 237.956L901.715 238.349C901.069 238.573 837.027 261.04 830.515 286.949L829.844 289.615L701.009 216.945ZM835.31 217.661L832.869 217.19L833.744 214.905C838.69 201.986 859.098 192.544 867.321 189.193C848.609 176.362 812.082 188.177 811.698 188.303L808.256 189.439L817.546 143.09L778.069 164.655L777.83 161.42C776.173 138.946 762.956 128.274 756.857 124.509C757.257 157.793 747.209 169.105 746.767 169.587L743.955 172.641L743.136 168.605C735.989 133.382 719.202 119.383 711.462 114.66C724.246 162.333 709.639 206.095 706.269 215.144L827.235 283.374C836.409 259.09 886.64 239.45 898.08 235.251C892.44 230.753 862.433 222.891 835.31 217.661Z" fill="#3A3865"/>
<path d="M698.485 85.6101C698.773 84.171 699.49 82.8481 700.545 81.8088C701.6 80.7694 702.945 80.0602 704.411 79.7709C705.877 79.4816 707.397 79.625 708.78 80.1833C710.163 80.7415 711.346 81.6893 712.179 82.907C713.012 84.1246 713.459 85.5573 713.462 87.024C713.466 88.4906 713.026 89.9252 712.198 91.1465C711.37 92.3678 710.191 93.3208 708.811 93.885C707.431 94.4493 705.911 94.5995 704.444 94.3166C702.478 93.9353 700.746 92.8045 699.629 91.1722C698.512 89.54 698.1 87.5396 698.485 85.6101V85.6101ZM702.621 86.4076C702.493 87.0443 702.561 87.7038 702.816 88.3027C703.07 88.9016 703.5 89.4131 704.051 89.7723C704.602 90.1316 705.249 90.3226 705.91 90.3212C706.572 90.3197 707.218 90.1259 707.767 89.7642C708.316 89.4025 708.744 88.8892 708.996 88.2892C709.247 87.6892 709.312 87.0294 709.182 86.3933C709.051 85.7572 708.731 85.1733 708.262 84.7155C707.794 84.2577 707.197 83.9466 706.548 83.8214C705.678 83.6547 704.775 83.8333 704.039 84.3181C703.303 84.8029 702.793 85.5544 702.621 86.4076V86.4076Z" fill="#3A3865"/>
<path d="M751.984 95.9265C752.272 94.4874 752.989 93.1645 754.044 92.1252C755.099 91.0858 756.444 90.3766 757.91 90.0873C759.376 89.798 760.896 89.9415 762.279 90.4997C763.662 91.0579 764.844 92.0057 765.678 93.2234C766.511 94.441 766.958 95.8738 766.961 97.3404C766.965 98.807 766.524 100.242 765.697 101.463C764.869 102.684 763.69 103.637 762.31 104.201C760.93 104.766 759.41 104.916 757.943 104.633C755.977 104.252 754.245 103.121 753.128 101.489C752.011 99.8564 751.599 97.856 751.984 95.9265V95.9265ZM756.12 96.724C755.992 97.3607 756.06 98.0202 756.314 98.6191C756.569 99.218 756.999 99.7295 757.55 100.089C758.1 100.448 758.747 100.639 759.409 100.638C760.07 100.636 760.717 100.442 761.266 100.081C761.815 99.7189 762.243 99.2056 762.494 98.6056C762.746 98.0056 762.811 97.3458 762.68 96.7097C762.55 96.0736 762.23 95.4897 761.761 95.0319C761.292 94.5741 760.696 94.263 760.047 94.1379C759.176 93.9711 758.274 94.1497 757.538 94.6345C756.802 95.1194 756.292 95.8708 756.12 96.724V96.724Z" fill="#3A3865"/>
<path d="M826.927 124.005C827.216 122.566 827.933 121.243 828.988 120.203C830.042 119.164 831.388 118.455 832.854 118.165C834.319 117.876 835.84 118.02 837.222 118.578C838.605 119.136 839.788 120.084 840.621 121.302C841.455 122.519 841.901 123.952 841.905 125.419C841.908 126.885 841.468 128.32 840.64 129.541C839.812 130.762 838.634 131.715 837.254 132.28C835.874 132.844 834.354 132.994 832.887 132.711C830.92 132.33 829.189 131.199 828.071 129.567C826.954 127.935 826.543 125.934 826.927 124.005V124.005ZM831.063 124.802C830.936 125.439 831.003 126.098 831.258 126.697C831.512 127.296 831.942 127.808 832.493 128.167C833.044 128.526 833.691 128.717 834.353 128.716C835.014 128.714 835.66 128.521 836.209 128.159C836.759 127.797 837.186 127.284 837.438 126.684C837.69 126.084 837.754 125.424 837.624 124.788C837.493 124.152 837.174 123.568 836.705 123.11C836.236 122.652 835.639 122.341 834.99 122.216C834.12 122.049 833.218 122.228 832.482 122.713C831.745 123.198 831.235 123.949 831.063 124.802V124.802Z" fill="#3A3865"/>
<path d="M913.371 233.331C913.659 231.892 914.376 230.569 915.431 229.529C916.486 228.49 917.831 227.781 919.297 227.492C920.763 227.202 922.283 227.346 923.666 227.904C925.049 228.462 926.231 229.41 927.065 230.628C927.898 231.845 928.345 233.278 928.348 234.745C928.352 236.211 927.912 237.646 927.084 238.867C926.256 240.088 925.077 241.042 923.697 241.606C922.317 242.17 920.797 242.32 919.33 242.037C917.364 241.656 915.632 240.525 914.515 238.893C913.398 237.261 912.986 235.26 913.371 233.331V233.331ZM917.507 234.128C917.379 234.765 917.447 235.425 917.702 236.023C917.956 236.622 918.386 237.134 918.937 237.493C919.488 237.852 920.135 238.043 920.796 238.042C921.458 238.04 922.104 237.847 922.653 237.485C923.202 237.123 923.63 236.61 923.882 236.01C924.133 235.41 924.198 234.75 924.068 234.114C923.937 233.478 923.617 232.894 923.148 232.436C922.68 231.978 922.083 231.667 921.434 231.542C920.564 231.375 919.661 231.554 918.925 232.039C918.189 232.524 917.679 233.275 917.507 234.128V234.128Z" fill="#3A3865"/>
<path d="M884.861 181.506C885.149 180.066 885.866 178.743 886.921 177.704C887.976 176.664 889.322 175.955 890.788 175.666C892.254 175.376 893.774 175.52 895.157 176.078C896.54 176.636 897.723 177.584 898.556 178.802C899.39 180.02 899.837 181.452 899.84 182.919C899.843 184.386 899.403 185.821 898.575 187.042C897.747 188.263 896.568 189.217 895.188 189.781C893.808 190.345 892.288 190.495 890.821 190.212C888.854 189.831 887.123 188.7 886.005 187.068C884.888 185.436 884.477 183.435 884.861 181.506V181.506ZM888.997 182.303C888.869 182.94 888.937 183.6 889.192 184.199C889.446 184.798 889.876 185.309 890.427 185.669C890.978 186.028 891.625 186.219 892.287 186.218C892.948 186.216 893.595 186.023 894.144 185.661C894.693 185.299 895.121 184.786 895.373 184.185C895.625 183.585 895.689 182.925 895.559 182.289C895.428 181.653 895.108 181.069 894.639 180.611C894.17 180.153 893.573 179.842 892.924 179.717C892.054 179.55 891.152 179.729 890.415 180.214C889.679 180.698 889.169 181.45 888.997 182.303Z" fill="#3A3865"/>
<path d="M835.248 763.096C846.254 754.23 850.229 745.058 857.566 739.861L798.867 711.428L709.594 700.422L682.384 710.205C755.759 728.549 772.88 747.504 835.248 763.096Z" fill="#2F2E41" stroke="#2F2E41"/>
<path d="M540.832 689.722C577.52 691.251 600.143 695.531 632.245 701.034L649.06 689.722C621.85 681.366 567.186 664.592 566.208 664.347C565.229 664.102 545.826 670.156 536.246 673.213L540.832 689.722Z" fill="#2F2E41"/>
</g>
<defs>
<clipPath id="clip0">
<rect width="1121.04" height="851.8" fill="white"/>
</clipPath>
</defs>
</svg>
