<svg width="1122" height="852" viewBox="0 0 1122 852" fill="none" xmlns="http://www.w3.org/2000/svg">
<g clip-path="url(#clip0)">
<g clip-path="url(#clip1)">
<path d="M1087.97 568.856C1087.99 587.822 1085.83 606.719 1081.54 625.13C1080.1 631.333 1078.42 637.407 1076.51 643.353C1074.18 650.691 1071.47 657.891 1068.4 664.919C1066.86 668.475 1065.22 671.96 1063.5 675.374C1063.53 694.822 1059.76 714.066 1052.43 731.888C1039.19 763.865 1015.58 789.72 985.892 804.742C967.333 814.151 947.051 819.1 926.488 819.235H220.293C188.873 819.307 157.995 810.536 130.8 793.814L130.382 793.563C126.508 791.154 122.732 788.603 119.052 785.91C110.773 779.833 102.995 773.019 95.8012 765.542C86.0649 755.432 77.4854 744.136 70.241 731.888C53.2261 703.18 44.2126 669.937 44.2442 636.009C27.013 603.882 16.9653 565.397 16.9653 524.043C16.9653 471.866 32.9326 424.27 59.1657 388.239C64.6348 380.712 70.6256 373.629 77.0879 367.05C83.4642 360.539 90.3177 354.578 97.5835 349.223C103.397 344.933 109.472 341.06 115.769 337.628C118.397 336.208 121.034 334.865 123.717 333.618C126.072 332.507 128.454 331.473 130.864 330.497C133.755 329.331 136.683 328.259 139.647 327.28C142.612 326.301 145.537 325.444 148.422 324.71C152.666 323.608 156.982 322.713 161.371 322.023C165.008 321.453 168.645 321.057 172.282 320.758C175.174 320.526 178.092 320.4 181.03 320.362H182.621C185.858 320.362 189.077 320.497 192.268 320.729C192.605 320.014 192.969 319.289 193.305 318.584C194.578 316.004 195.896 313.434 197.224 310.921C197.221 310.899 197.221 310.876 197.224 310.854C197.451 310.409 197.679 309.975 197.915 309.549C198.988 307.491 200.107 305.453 201.252 303.433C201.78 302.467 202.298 301.559 202.834 300.65C202.948 300.425 203.072 300.205 203.207 299.993C203.753 299.027 204.307 298.061 204.871 297.095C207.678 292.328 210.597 287.645 213.628 283.046L214.401 281.867C214.873 281.152 215.31 280.456 215.837 279.741C217.092 277.876 218.383 276.002 219.684 274.166C220.593 272.852 221.502 271.548 222.484 270.301C224.848 267.08 227.273 263.86 229.759 260.639C232.244 257.418 234.826 254.239 237.506 251.102C237.87 250.667 238.233 250.242 238.615 249.817L242.498 245.314C242.689 245.102 242.853 244.909 243.034 244.715C243.498 244.184 243.944 243.653 244.444 243.14C246.526 240.793 248.663 238.493 250.809 236.203C261.73 224.644 273.364 213.873 285.635 203.96C286.117 203.554 286.608 203.168 287.09 202.781C289.399 200.936 291.745 199.109 294.091 197.312C306.995 187.475 320.484 178.535 334.473 170.548C335.437 169.958 336.419 169.407 337.41 168.866C349.952 161.816 362.85 155.507 376.046 149.967C383.239 146.943 390.595 144.102 397.996 141.503C402.925 139.783 407.871 138.15 412.882 136.614C420.714 134.217 428.6 132.069 436.542 130.169C459.937 124.591 483.738 121.145 507.685 119.869C514.959 119.476 522.315 119.273 529.753 119.26C565.643 119.21 601.393 124.015 636.141 133.56C636.5 134.137 636.992 134.608 637.569 134.927C638.147 135.247 638.791 135.405 639.442 135.387H642.497C643.825 135.773 645.143 136.16 646.471 136.565C653.884 138.833 661.192 141.31 668.394 143.996L670.212 144.691C687.987 151.408 705.281 159.48 721.96 168.847C736.995 177.27 751.472 186.774 765.288 197.293C767.416 198.916 769.513 200.552 771.581 202.201C774.09 200.494 776.642 198.858 779.237 197.293C789.256 191.229 799.898 186.408 810.953 182.925C834.065 175.657 858.52 174.641 882.096 179.968C912.33 186.78 939.7 203.689 961.805 227.739C970.806 237.579 978.817 248.388 985.711 259.991C986.211 260.822 986.711 261.663 987.193 262.513C993.117 272.783 998.209 283.57 1002.41 294.756C1002.57 295.172 1002.72 295.558 1002.86 295.964C1006.74 306.439 1009.87 317.211 1012.23 328.188C1012.33 328.748 1012.46 329.299 1012.57 329.86C1014.77 340.482 1016.27 351.257 1017.04 362.103C1017.04 362.489 1017.04 362.885 1017.12 363.291C1017.5 368.902 1017.69 374.57 1017.7 380.297C1017.7 385.418 1017.54 390.5 1017.24 395.544C1017.24 396.095 1017.16 396.665 1017.12 397.235C1017.04 398.694 1016.92 400.133 1016.8 401.602C1023.74 407.555 1030.24 414.07 1036.24 421.091C1038.89 424.164 1041.45 427.352 1043.93 430.657C1051.48 440.714 1058.12 451.51 1063.76 462.9C1079.13 493.742 1087.97 530.024 1087.97 568.856Z" fill="#A8A3F2"/>
<path d="M127.123 773.999L125.162 773.557C147.032 676.264 201.995 587.912 279.925 524.778C338.843 477.12 408.917 445.247 483.548 432.158C558.18 419.07 634.913 425.197 706.524 449.963C778.135 474.729 842.266 517.319 892.881 573.722C943.495 630.126 978.926 698.487 995.838 772.37L993.879 772.816C947.582 569.473 769.426 427.455 560.635 427.455C354.579 427.455 172.261 573.197 127.123 773.999Z" fill="#3F3D56"/>
<path d="M408.335 201.414C438.49 201.414 462.937 176.959 462.937 146.794C462.937 116.628 438.49 92.1738 408.335 92.1738C378.179 92.1738 353.733 116.628 353.733 146.794C353.733 176.959 378.179 201.414 408.335 201.414Z" fill="#FF6584"/>
<path d="M173.097 761.593C174.8 767.89 180.632 771.79 180.632 771.79C180.632 771.79 183.704 765.48 182.001 759.183C180.298 752.886 174.466 748.986 174.466 748.986C174.466 748.986 171.394 755.296 173.097 761.593Z" fill="#3F3D56"/>
<path d="M175.599 760.24C180.272 764.79 180.843 771.785 180.843 771.785C180.843 771.785 173.838 771.402 169.165 766.852C164.492 762.301 163.921 755.307 163.921 755.307C163.921 755.307 170.927 755.689 175.599 760.24Z" fill="#6C63FF"/>
<path d="M302.778 761.593C304.481 767.89 310.314 771.79 310.314 771.79C310.314 771.79 313.385 765.48 311.683 759.183C309.98 752.886 304.147 748.986 304.147 748.986C304.147 748.986 301.075 755.296 302.778 761.593Z" fill="#3F3D56"/>
<path d="M305.28 760.24C309.953 764.79 310.524 771.785 310.524 771.785C310.524 771.785 303.518 771.402 298.846 766.852C294.173 762.301 293.602 755.307 293.602 755.307C293.602 755.307 300.607 755.689 305.28 760.24Z" fill="#6C63FF"/>
<path d="M328.492 260.008L307.96 243.577L422.938 140.885H714.487V231.254L525.596 358.592L328.492 260.008Z" fill="#3F3D56"/>
<path d="M767.643 198.489V142.936H728.934V156.541L714.487 140.885L620.042 243.577L583.085 268.223L525.782 687.022L612.201 773.47H813.04V247.685L767.643 198.489Z" fill="#CCCCCC"/>
<path d="M620.042 243.578H307.96V773.47H620.042V243.578Z" fill="#F2F2F2"/>
<path d="M486.586 644.078H429.097V773.471H486.586V644.078Z" fill="#CCCCCC"/>
<path d="M367.502 681.046V660.508H342.865V681.046H365.449H367.502Z" fill="#3F3D56"/>
<path d="M365.449 697.477H342.865V718.015H367.502V697.477H365.449Z" fill="#3F3D56"/>
<path d="M408.566 660.508H383.928V681.046H408.566V660.508Z" fill="#3F3D56"/>
<path d="M408.566 697.477H383.928V718.015H408.566V697.477Z" fill="#3F3D56"/>
<path d="M535.862 681.046V660.508H511.224V681.046H533.809H535.862Z" fill="#3F3D56"/>
<path d="M533.809 697.477H511.224V718.015H535.862V697.477H533.809Z" fill="#3F3D56"/>
<path d="M576.925 660.508H552.287V681.046H576.925V660.508Z" fill="#3F3D56"/>
<path d="M576.925 697.477H552.287V718.015H576.925V697.477Z" fill="#3F3D56"/>
<path d="M708.328 270.276V249.738H683.69V270.276H706.275H708.328Z" fill="#3F3D56"/>
<path d="M706.275 286.709H683.69V307.247H708.328V286.709H706.275Z" fill="#3F3D56"/>
<path d="M749.391 249.74H724.753V270.279H749.391V249.74Z" fill="#3F3D56"/>
<path d="M749.391 286.709H724.753V307.247H749.391V286.709Z" fill="#3F3D56"/>
<path d="M708.328 385.292V364.754H683.69V385.292H706.275H708.328Z" fill="#3F3D56"/>
<path d="M706.275 401.723H683.69V422.261H708.328V401.723H706.275Z" fill="#3F3D56"/>
<path d="M749.391 364.754H724.753V385.292H749.391V364.754Z" fill="#3F3D56"/>
<path d="M749.391 401.723H724.753V422.261H749.391V401.723Z" fill="#3F3D56"/>
<path d="M708.328 500.308V479.77H683.69V500.308H706.275H708.328Z" fill="#3F3D56"/>
<path d="M706.275 516.738H683.69V537.277H708.328V516.738H706.275Z" fill="#3F3D56"/>
<path d="M749.391 479.77H724.753V500.308H749.391V479.77Z" fill="#3F3D56"/>
<path d="M749.391 516.74H724.753V537.279H749.391V516.74Z" fill="#3F3D56"/>
<path d="M708.328 615.324V594.785H683.69V615.324H706.275H708.328Z" fill="#3F3D56"/>
<path d="M706.275 631.754H683.69V652.292H708.328V631.754H706.275Z" fill="#3F3D56"/>
<path d="M749.391 594.785H724.753V615.324H749.391V594.785Z" fill="#3F3D56"/>
<path d="M749.391 631.754H724.753V652.292H749.391V631.754Z" fill="#3F3D56"/>
<path d="M581.032 270.277H342.864V319.57H581.032V270.277Z" fill="#3F3D56"/>
<path d="M581.032 368.863H342.864V418.156H581.032V368.863Z" fill="#3F3D56"/>
<path d="M581.032 467.447H342.864V516.74H581.032V467.447Z" fill="#3F3D56"/>
<path d="M581.032 566.031H342.864V615.324H581.032V566.031Z" fill="#3F3D56"/>
<path d="M1132 771.402H-11V773.414H1132V771.402Z" fill="#3F3D56"/>
<path d="M186.315 539.193H180.41V772.549H186.315V539.193Z" fill="#3F3D56"/>
<path d="M240.819 568.932C241.195 650.531 183.805 716.945 183.805 716.945C183.805 716.945 125.805 651.063 125.43 569.464C125.054 487.866 182.443 421.451 182.443 421.451C182.443 421.451 240.443 487.334 240.819 568.932Z" fill="#6C63FF"/>
<path opacity="0.1" d="M240.819 568.932C241.195 650.531 183.805 716.945 183.805 716.945C183.805 716.945 125.805 651.063 125.43 569.464C125.054 487.866 182.443 421.451 182.443 421.451C182.443 421.451 240.443 487.334 240.819 568.932Z" fill="black"/>
<path d="M109.541 539.193H103.635V772.549H109.541V539.193Z" fill="#3F3D56"/>
<path d="M164.044 568.932C164.42 650.531 107.03 716.945 107.03 716.945C107.03 716.945 49.0306 651.063 48.6547 569.464C48.2788 487.866 105.669 421.451 105.669 421.451C105.669 421.451 163.668 487.334 164.044 568.932Z" fill="#6C63FF"/>
<path d="M939.544 243.247C893.023 243.462 855.157 244.149 855.157 244.149C855.157 244.149 900.167 184.509 939.376 206.606C978.584 228.702 1023.62 243.373 1023.62 243.373C1023.62 243.373 986.065 243.033 939.544 243.247Z" fill="#F2F2F2"/>
<path d="M164.476 357.886C117.955 358.101 80.0884 358.788 80.0884 358.788C80.0884 358.788 125.098 299.148 164.307 321.244C203.515 343.341 248.556 358.011 248.556 358.011C248.556 358.011 210.996 357.672 164.476 357.886Z" fill="#F2F2F2"/>
<path d="M333.362 118.552C286.841 118.767 248.975 119.454 248.975 119.454C248.975 119.454 293.985 59.8142 333.193 81.9104C372.402 104.007 417.442 118.677 417.442 118.677C417.442 118.677 379.883 118.338 333.362 118.552Z" fill="#F2F2F2"/>
<path d="M1035.4 539.193H1029.49V772.549H1035.4V539.193Z" fill="#3F3D56"/>
<path d="M1089.9 568.932C1090.28 650.531 1032.89 716.945 1032.89 716.945C1032.89 716.945 974.89 651.063 974.515 569.464C974.139 487.866 1031.53 421.451 1031.53 421.451C1031.53 421.451 1089.53 487.334 1089.9 568.932Z" fill="#6C63FF"/>
<path d="M818.019 627.702H877.621V613.311H910.504V627.702H972.161V691.435H910.504V771.616H877.621V691.435H818.019L787.19 656.484L818.019 627.702Z" fill="#3F3D56"/>
</g>
</g>
<defs>
<clipPath id="clip0">
<rect width="1121.04" height="851.8" fill="white"/>
</clipPath>
<clipPath id="clip1">
<rect width="1143" height="697" fill="white" transform="translate(-11 77)"/>
</clipPath>
</defs>
</svg>
