<svg width="1122" height="852" viewBox="0 0 1122 852" fill="none" xmlns="http://www.w3.org/2000/svg">
<g clip-path="url(#clip0)">
<path opacity="0.5" d="M1059.27 656.245C1022.87 706.255 1037.01 779.314 1060.14 837.825C1067.89 857.415 1076.65 878.141 1073.38 899.15C1069.38 924.839 1048.16 943.624 1025.88 953.58C985.271 971.729 936.671 967.404 899.354 942.319C867.105 920.642 844.009 885.389 811.21 864.698C756.32 830.072 686.453 843.148 626.849 867C584.681 883.875 538.579 905.82 496.678 888.185C467.195 875.776 446.815 845.573 435.711 813.558C430.35 798.101 426.458 781.37 416.22 769.119C410.134 761.835 402.191 756.665 394.054 752.305C319.752 712.498 225.909 733.816 153.74 689.664C104.999 659.846 73.7956 603.599 59.9796 544.949C46.1637 486.298 47.773 424.799 51.2808 364.397C53.7736 321.472 58.2462 275.645 83.6296 242.515C110.482 207.469 156.566 194.438 198.219 201.099C239.873 207.76 277.628 231.501 310.844 259.465C352.357 294.413 390.855 337.932 441.824 352.089C476.533 361.73 513.046 356.456 548.844 354.63C608.691 351.577 668.562 358.366 728.079 365.801C785.056 372.918 842.444 380.751 896.724 400.778C935.136 414.951 965.931 440.678 1002.2 458.651C1025.84 470.367 1051.63 473.602 1074.01 488.524C1101.59 506.906 1126.87 538.878 1119.8 576.29C1113.08 611.861 1078.59 629.702 1059.27 656.245Z" fill="#6C63FF"/>
<path d="M269.774 702.287L242.16 659.171L269.786 706.984L269.801 711.897C271.771 711.875 273.721 711.8 275.652 711.674L273.399 648.563L273.429 648.075L273.378 647.982L273.164 642.018L302.037 594.762L273.134 637.552L273.048 638.815L271.346 591.132L296.168 542.24L271.152 582.753L269.989 483.919L269.983 483.59L269.979 483.914L269.413 561.838L245.694 530.659L269.434 568.549L269.544 611.229L247.537 570.009L269.556 617.504L269.617 641.236L237.649 583.842L269.642 649.515L269.774 702.287Z" fill="#E2E2E2"/>
<path d="M506.738 702.287L479.124 659.171L506.751 706.984L506.766 711.897C508.736 711.875 510.686 711.8 512.617 711.674L510.364 648.563L510.394 648.075L510.343 647.982L510.129 642.018L539.001 594.762L510.099 637.552L510.012 638.815L508.311 591.132L533.132 542.24L508.117 582.753L506.953 483.919L506.948 483.59L506.944 483.914L506.377 561.838L482.659 530.659L506.398 568.549L506.508 611.229L484.501 570.009L506.521 617.504L506.582 641.236L474.614 583.842L506.607 649.515L506.738 702.287Z" fill="#E2E2E2"/>
<path d="M32.584 705.061L12.644 673.927L32.5932 708.453L32.6039 712C34.0264 711.984 35.4346 711.93 36.8285 711.839L35.2021 666.267L35.2235 665.914L35.1868 665.847L35.032 661.541L55.8809 627.418L35.0105 658.316L34.948 659.228L33.7194 624.796L51.6429 589.491L33.5794 618.746L32.7391 547.378L32.7353 547.141L32.7324 547.374L32.3233 603.643L15.1965 581.129L32.3384 608.489L32.418 639.308L16.5268 609.543L32.4267 643.839L32.4707 660.976L9.38721 619.533L32.4888 666.954L32.584 705.061Z" fill="#E2E2E2"/>
<path d="M1083.06 702.287L1055.44 659.171L1083.07 706.984L1083.09 711.897C1085.06 711.875 1087.01 711.8 1088.94 711.674L1086.68 648.563L1086.71 648.075L1086.66 647.982L1086.45 642.018L1115.32 594.762L1086.42 637.552L1086.33 638.815L1084.63 591.132L1109.45 542.24L1084.44 582.753L1083.27 483.919L1083.27 483.59L1083.26 483.914L1082.7 561.838L1058.98 530.659L1082.72 568.549L1082.83 611.229L1060.82 570.009L1082.84 617.504L1082.9 641.236L1050.93 583.843L1082.93 649.515L1083.06 702.287Z" fill="#E2E2E2"/>
<path d="M334.172 637.189H483.133V630.979H334.172V637.189Z" fill="#6C63FF"/>
<path d="M326.597 630.98H475.559V624.77H326.597V630.98Z" fill="#6C63FF"/>
<path d="M335.434 624.77H484.396V618.559H335.434V624.77Z" fill="#6C63FF"/>
<path d="M350.583 618.559H499.544V612.348H350.583V618.559Z" fill="#6C63FF"/>
<path d="M223.838 621.035H229.01V584.906H223.838V621.035Z" fill="#3F3D56"/>
<path d="M223.827 584.447L225.772 589.162L417.161 512.731L415.216 508.016L223.827 584.447Z" fill="#3F3D56"/>
<path d="M128.156 674.975H173.152V657.673H128.156V674.975Z" fill="#3F3D56"/>
<path d="M132.294 692.277H354.171V672.94H132.294V692.277Z" fill="#3F3D56"/>
<path d="M168.756 682.61H222.027V616.711H182.203L168.756 649.947V682.61Z" fill="#E2E2E2"/>
<path d="M190.996 643.172H213.752V620.782H190.996V643.172Z" fill="white"/>
<path d="M173.928 643.425H188.41V621.035H182.203L173.928 643.425Z" fill="white"/>
<path d="M207.546 665.561H212.718V655.892H207.546V665.561Z" fill="#3F3D56"/>
<path d="M184.013 644.953H183.755C182.452 644.953 181.202 644.444 180.281 643.537C179.359 642.631 178.842 641.401 178.842 640.119C178.842 638.837 179.359 637.607 180.281 636.701C181.202 635.794 182.452 635.285 183.755 635.285H184.013V644.953V644.953Z" fill="#3F3D56"/>
<path d="M376.411 682.607H376.152C374.849 682.607 373.599 682.098 372.678 681.191C371.756 680.285 371.239 679.055 371.239 677.773V677.773C371.239 676.491 371.756 675.261 372.678 674.355C373.599 673.448 374.849 672.939 376.152 672.939H376.411V682.607V682.607Z" fill="#3F3D56"/>
<path d="M148.068 672.868C144.222 672.916 140.437 673.817 136.993 675.504C133.549 677.19 130.537 679.619 128.179 682.609H118.071L127.898 655.677L173.67 646.795L172.377 682.609H167.958C165.6 679.619 162.587 677.19 159.144 675.504C155.7 673.817 151.915 672.916 148.068 672.868V672.868Z" fill="#E2E2E2"/>
<path d="M147.551 711.106C159.977 711.106 170.049 701.195 170.049 688.97C170.049 676.744 159.977 666.834 147.551 666.834C135.126 666.834 125.053 676.744 125.053 688.97C125.053 701.195 135.126 711.106 147.551 711.106Z" fill="#3F3D56"/>
<path d="M147.551 700.619C154.091 700.619 159.392 695.403 159.392 688.969C159.392 682.534 154.091 677.318 147.551 677.318C141.012 677.318 135.71 682.534 135.71 688.969C135.71 695.403 141.012 700.619 147.551 700.619Z" fill="#E2E2E2"/>
<path d="M350.809 710.85C361.664 710.85 370.463 702.192 370.463 691.513C370.463 680.833 361.664 672.176 350.809 672.176C339.955 672.176 331.156 680.833 331.156 691.513C331.156 702.192 339.955 710.85 350.809 710.85Z" fill="#3F3D56"/>
<path d="M350.81 701.691C356.522 701.691 361.153 697.134 361.153 691.513C361.153 685.892 356.522 681.336 350.81 681.336C345.097 681.336 340.466 685.892 340.466 691.513C340.466 697.134 345.097 701.691 350.81 701.691Z" fill="#E2E2E2"/>
<path d="M220.476 684.643H231.337V607.549H220.476V684.643Z" fill="#3F3D56"/>
<path d="M220.476 675.23H376.669V670.651H220.476V675.23Z" fill="#3F3D56"/>
<path d="M180.91 646.479H186.082V644.443H180.91V646.479Z" fill="#3F3D56"/>
<path d="M409.511 637.152C409.462 637.099 409.425 637.037 409.403 636.968C409.38 636.9 409.372 636.828 409.38 636.757L416.513 570.391C416.526 570.266 416.586 570.151 416.68 570.067C416.775 569.983 416.897 569.936 417.025 569.936H417.027C417.154 569.936 417.277 569.982 417.371 570.065C417.466 570.148 417.527 570.262 417.541 570.387L425.256 636.615C425.264 636.686 425.257 636.757 425.235 636.825C425.213 636.893 425.177 636.956 425.129 637.01C425.081 637.063 425.022 637.106 424.956 637.136C424.89 637.165 424.819 637.181 424.746 637.181L409.899 637.319H409.894C409.822 637.319 409.751 637.304 409.685 637.276C409.619 637.247 409.56 637.205 409.511 637.152V637.152ZM417.048 575.091L410.47 636.296L424.162 636.169L417.048 575.091Z" fill="#3F3D56"/>
<path d="M127.993 656.068L128.235 656.158C129.454 656.612 130.439 657.523 130.975 658.692C131.511 659.861 131.553 661.191 131.092 662.39C130.631 663.589 129.705 664.559 128.517 665.087C127.329 665.614 125.977 665.655 124.758 665.202L124.517 665.112L127.993 656.068V656.068Z" fill="#3F3D56"/>
<path d="M414.683 582.361H419.855V508.067H414.683V582.361Z" fill="#3F3D56"/>
<path d="M226.424 593.049C230.423 593.049 233.664 589.859 233.664 585.925C233.664 581.99 230.423 578.801 226.424 578.801C222.425 578.801 219.183 581.99 219.183 585.925C219.183 589.859 222.425 593.049 226.424 593.049Z" fill="#3F3D56"/>
<path d="M236.968 670.725H385.93V664.514H236.968V670.725Z" fill="#6C63FF"/>
<path d="M245.804 664.516H394.766V658.305H245.804V664.516Z" fill="#6C63FF"/>
<path d="M239.492 659.547H388.454V653.337H239.492V659.547Z" fill="#6C63FF"/>
<path d="M248.329 653.338H397.291V647.128H248.329V653.338Z" fill="#6C63FF"/>
<path d="M482.658 291.832C487.405 291.827 491.994 293.509 495.58 296.569C498.413 295.808 501.384 295.679 504.274 296.193C506.667 292.777 510.108 290.203 514.093 288.847C518.079 287.491 522.401 287.425 526.427 288.658C530.454 289.891 533.974 292.359 536.474 295.7C538.974 299.042 540.322 303.082 540.322 307.232H463.32C464.264 302.874 466.699 298.968 470.219 296.165C473.739 293.362 478.13 291.832 482.658 291.832V291.832Z" fill="#E2E2E2"/>
<path d="M366.814 353.126C371.302 353.121 375.641 354.712 379.031 357.605C381.71 356.885 384.518 356.764 387.25 357.25C389.513 354.02 392.765 351.586 396.533 350.304C400.301 349.023 404.387 348.96 408.194 350.126C412.001 351.291 415.329 353.624 417.692 356.783C420.055 359.942 421.33 363.762 421.33 367.685H348.532C349.425 363.566 351.727 359.873 355.055 357.223C358.382 354.573 362.533 353.127 366.814 353.126V353.126Z" fill="#E2E2E2"/>
<path d="M199.749 272.432C204.419 272.426 208.933 274.081 212.461 277.092C215.248 276.343 218.17 276.216 221.013 276.722C223.367 273.361 226.751 270.829 230.671 269.495C234.592 268.162 238.843 268.097 242.804 269.31C246.765 270.522 250.227 272.95 252.686 276.237C255.145 279.524 256.471 283.498 256.471 287.58H180.728C181.657 283.294 184.052 279.451 187.514 276.694C190.976 273.937 195.295 272.432 199.749 272.432V272.432Z" fill="#E2E2E2"/>
<path d="M751.119 444.536V599.676H812.439V442.381L798.204 442.881V411.138H787.879L786.178 340.832C790.344 338.161 793.277 331.817 793.277 324.41C793.281 322.283 793.03 320.164 792.527 318.095C794.499 315.996 795.707 313.313 795.963 310.466C796.219 307.618 795.508 304.768 793.941 302.361C795.251 303.488 796.776 304.347 798.426 304.889C800.077 305.431 801.82 305.645 803.555 305.519C805.29 305.393 806.983 304.928 808.534 304.153C810.085 303.378 811.465 302.308 812.592 301.004C813.72 299.7 814.573 298.189 815.102 296.558C815.631 294.928 815.826 293.21 815.675 291.504C815.523 289.799 815.029 288.14 814.221 286.624C813.413 285.108 812.307 283.765 810.967 282.673C813.22 281.855 815.202 280.445 816.698 278.596C818.194 276.748 819.146 274.531 819.452 272.188C819.758 269.844 819.404 267.463 818.431 265.303C817.458 263.143 815.902 261.286 813.932 259.935C811.961 258.584 809.653 257.79 807.256 257.64C804.859 257.489 802.467 257.987 800.338 259.08C798.209 260.174 796.425 261.82 795.18 263.841C793.935 265.861 793.277 268.179 793.277 270.541C793.277 270.731 793.283 270.919 793.291 271.106C791.487 270.564 789.585 270.41 787.715 270.655C785.845 270.899 784.05 271.537 782.453 272.525C780.856 273.513 779.493 274.827 778.458 276.379C777.423 277.93 776.739 279.683 776.453 281.517C774.815 280.558 772.983 279.961 771.087 279.768C769.19 279.575 767.273 279.791 765.47 280.399C763.666 281.008 762.019 281.996 760.642 283.294C759.266 284.592 758.193 286.17 757.498 287.917C756.803 289.664 756.503 291.539 756.618 293.411C756.734 295.284 757.262 297.109 758.167 298.761C759.071 300.412 760.33 301.85 761.856 302.975C763.382 304.1 765.139 304.885 767.004 305.275C767.001 305.368 766.996 305.462 766.996 305.556C768.217 309.179 769.77 312.686 771.637 316.032C770.724 318.733 770.267 321.563 770.282 324.41C770.282 331.817 773.213 338.161 777.38 340.832L775.678 411.137H765.354V444.036L751.119 444.536ZM789.41 296.397L789.444 296.398C789.634 296.398 789.822 296.392 790.009 296.384C790.127 296.766 790.263 297.14 790.415 297.507C790.102 297.118 789.766 296.748 789.41 296.397V296.397Z" fill="#E2E2E2"/>
<path d="M717.356 710.105H903.506V498.224H717.356V710.105Z" fill="#3F3D56"/>
<path d="M785.338 710.105H835.525V667.011H785.338V710.105Z" fill="#E2E2E2"/>
<path d="M655.319 219.436C655.315 219.592 655.307 219.747 655.307 219.905C655.304 222.786 655.89 225.639 657.031 228.293C658.172 230.947 659.843 233.348 661.947 235.353C662.275 236.042 662.641 236.714 663.042 237.365C661.52 241.867 660.756 246.583 660.782 251.328C660.782 267.69 669.361 280.955 679.944 280.955C690.527 280.955 699.107 267.69 699.107 251.328C699.115 247.783 698.695 244.25 697.858 240.803C701.144 237.304 703.158 232.832 703.584 228.087C704.011 223.342 702.825 218.592 700.214 214.58C702.398 216.457 704.939 217.889 707.689 218.792C710.44 219.696 713.345 220.052 716.237 219.842C719.129 219.631 721.95 218.858 724.535 217.566C727.121 216.275 729.42 214.49 731.299 212.318C733.178 210.145 734.6 207.626 735.482 204.908C736.363 202.19 736.688 199.327 736.436 196.485C736.184 193.643 735.361 190.878 734.014 188.351C732.668 185.824 730.824 183.586 728.591 181.766C732.346 180.402 735.65 178.053 738.143 174.972C740.636 171.891 742.223 168.197 742.733 164.291C743.242 160.385 742.653 156.416 741.031 152.816C739.409 149.216 736.815 146.122 733.532 143.87C730.248 141.618 726.4 140.295 722.406 140.044C718.411 139.793 714.423 140.623 710.875 142.445C707.327 144.267 704.354 147.011 702.279 150.379C700.204 153.747 699.107 157.609 699.107 161.547C699.107 161.863 699.117 162.176 699.131 162.488C696.124 161.584 692.954 161.328 689.838 161.736C686.721 162.144 683.73 163.207 681.068 164.853C678.406 166.499 676.135 168.69 674.41 171.276C672.684 173.862 671.544 176.783 671.068 179.841C668.337 178.242 665.285 177.247 662.124 176.925C658.962 176.603 655.768 176.962 652.762 177.977C649.756 178.992 647.011 180.638 644.716 182.801C642.422 184.965 640.634 187.594 639.475 190.506C638.317 193.417 637.817 196.542 638.009 199.663C638.202 202.784 639.082 205.827 640.59 208.579C642.097 211.332 644.196 213.729 646.739 215.604C649.282 217.478 652.21 218.786 655.319 219.436V219.436ZM692.719 204.642C693.035 204.642 693.349 204.631 693.661 204.618C693.858 205.255 694.083 205.879 694.338 206.489C693.816 205.842 693.256 205.225 692.663 204.64L692.719 204.642Z" fill="#2F2C55"/>
<path d="M668.991 428.195H690.894L690.112 395.877V395.864L687.245 277.359C685.046 278.681 682.519 279.381 679.942 279.381C677.366 279.381 674.839 278.681 672.64 277.359L669.774 395.864V395.877L668.991 428.195Z" fill="#6C63FF"/>
<path d="M628.847 451.534V710.105H731.038V447.944L707.317 448.776V395.877H652.567V450.701L628.847 451.534Z" fill="#6C63FF"/>
<path d="M916.293 219.436C916.289 219.592 916.281 219.747 916.281 219.905C916.278 222.786 916.864 225.639 918.005 228.293C919.146 230.947 920.817 233.348 922.921 235.353C923.249 236.042 923.615 236.714 924.016 237.365C922.494 241.867 921.73 246.583 921.756 251.328C921.756 267.69 930.335 280.955 940.918 280.955C951.501 280.955 960.081 267.69 960.081 251.328C960.089 247.783 959.669 244.25 958.832 240.803C962.118 237.304 964.132 232.832 964.558 228.087C964.985 223.342 963.799 218.592 961.188 214.58C963.372 216.457 965.913 217.889 968.663 218.792C971.414 219.696 974.32 220.053 977.211 219.842C980.103 219.632 982.924 218.858 985.509 217.566C988.095 216.275 990.394 214.491 992.273 212.318C994.152 210.145 995.574 207.626 996.456 204.908C997.338 202.19 997.662 199.327 997.41 196.485C997.158 193.643 996.335 190.878 994.988 188.351C993.642 185.824 991.798 183.586 989.565 181.766C993.32 180.402 996.624 178.053 999.117 174.972C1001.61 171.891 1003.2 168.197 1003.71 164.291C1004.22 160.385 1003.63 156.416 1002.01 152.816C1000.38 149.216 997.789 146.122 994.506 143.87C991.222 141.618 987.374 140.295 983.38 140.044C979.385 139.793 975.397 140.623 971.849 142.445C968.301 144.267 965.328 147.011 963.253 150.379C961.178 153.747 960.081 157.609 960.081 161.547C960.081 161.863 960.091 162.176 960.105 162.488C957.098 161.584 953.928 161.328 950.812 161.736C947.695 162.144 944.704 163.207 942.042 164.853C939.38 166.499 937.109 168.69 935.384 171.276C933.658 173.862 932.518 176.783 932.042 179.841C929.311 178.242 926.259 177.247 923.098 176.925C919.937 176.603 916.742 176.962 913.736 177.977C910.73 178.992 907.985 180.638 905.69 182.801C903.396 184.965 901.608 187.594 900.449 190.506C899.291 193.417 898.791 196.542 898.984 199.663C899.176 202.784 900.057 205.827 901.564 208.579C903.072 211.332 905.17 213.729 907.713 215.604C910.257 217.478 913.184 218.786 916.293 219.436V219.436ZM953.693 204.642C954.009 204.642 954.323 204.631 954.636 204.618C954.832 205.255 955.057 205.879 955.312 206.489C954.79 205.842 954.23 205.225 953.637 204.64L953.693 204.642Z" fill="#2F2C55"/>
<path d="M929.968 428.194H951.868L948.218 277.363C943.499 279.032 938.337 279.032 933.618 277.363L929.968 428.194Z" fill="#6C63FF"/>
<path d="M889.82 451.534V710.105H992.023V447.944L983.628 448.242L968.29 448.776V395.877H913.541V450.701L889.82 451.534Z" fill="#6C63FF"/>
<path d="M838.203 548.637H863.451V523.796H838.203V548.637Z" fill="white"/>
<path d="M797.807 548.637H823.055V523.796H797.807V548.637Z" fill="white"/>
<path d="M757.411 548.637H782.659V523.796H757.411V548.637Z" fill="white"/>
<path d="M838.203 588.383H863.451V563.542H838.203V588.383Z" fill="white"/>
<path d="M797.807 588.383H823.055V563.542H797.807V588.383Z" fill="white"/>
<path d="M757.411 588.383H782.659V563.542H757.411V588.383Z" fill="white"/>
<path d="M838.203 628.129H863.451V603.288H838.203V628.129Z" fill="white"/>
<path d="M797.807 628.129H823.055V603.288H797.807V628.129Z" fill="white"/>
<path d="M757.411 628.129H782.659V603.288H757.411V628.129Z" fill="white"/>
<path d="M667.32 538.701H692.568V513.86H667.32V538.701Z" fill="white"/>
<path d="M667.32 578.447H692.568V553.606H667.32V578.447Z" fill="white"/>
<path d="M667.32 618.193H692.568V593.352H667.32V618.193Z" fill="white"/>
<path d="M667.32 657.938H692.568V633.096H667.32V657.938Z" fill="white"/>
<path d="M928.083 538.701H953.331V513.86H928.083V538.701Z" fill="white"/>
<path d="M928.083 578.447H953.331V553.606H928.083V578.447Z" fill="white"/>
<path d="M928.083 618.193H953.331V593.352H928.083V618.193Z" fill="white"/>
<path d="M928.083 657.938H953.331V633.096H928.083V657.938Z" fill="white"/>
<path d="M1121 709.229H0V711.713H1121V709.229Z" fill="#3F3D56"/>
</g>
<defs>
<clipPath id="clip0">
<rect width="1121" height="572" fill="white" transform="translate(0 140)"/>
</clipPath>
</defs>
</svg>
