<svg width="1122" height="852" viewBox="0 0 1122 852" fill="none" xmlns="http://www.w3.org/2000/svg">
<g clip-path="url(#clip0)">
<g clip-path="url(#clip1)">
<path opacity="0.1" d="M1060.07 848.822C1068.89 839.998 1058.68 815.477 1037.26 794.053C1015.85 772.629 991.332 762.416 982.509 771.24C973.687 780.065 983.898 804.586 1005.32 826.01C1026.73 847.433 1051.25 857.647 1060.07 848.822Z" fill="#6C63FF"/>
<path d="M1025.17 813.612C1031.87 813.612 1037.3 806.501 1037.3 797.73C1037.3 788.958 1031.87 781.848 1025.17 781.848C1018.47 781.848 1013.05 788.958 1013.05 797.73C1013.05 806.501 1018.47 813.612 1025.17 813.612Z" fill="#3F3D56"/>
<path d="M1025.17 794.202C1031.87 794.202 1037.3 787.091 1037.3 778.32C1037.3 769.548 1031.87 762.438 1025.17 762.438C1018.47 762.438 1013.05 769.548 1013.05 778.32C1013.05 787.091 1018.47 794.202 1025.17 794.202Z" fill="#3F3D56"/>
<path d="M1025.17 774.794C1031.87 774.794 1037.3 767.683 1037.3 758.912C1037.3 750.14 1031.87 743.029 1025.17 743.029C1018.47 743.029 1013.05 750.14 1013.05 758.912C1013.05 767.683 1018.47 774.794 1025.17 774.794Z" fill="#3F3D56"/>
<path d="M1025.17 755.384C1031.87 755.384 1037.3 748.273 1037.3 739.501C1037.3 730.73 1031.87 723.619 1025.17 723.619C1018.47 723.619 1013.05 730.73 1013.05 739.501C1013.05 748.273 1018.47 755.384 1025.17 755.384Z" fill="#3F3D56"/>
<path d="M1025.17 735.976C1031.87 735.976 1037.3 728.865 1037.3 720.093C1037.3 711.322 1031.87 704.211 1025.17 704.211C1018.47 704.211 1013.05 711.322 1013.05 720.093C1013.05 728.865 1018.47 735.976 1025.17 735.976Z" fill="#3F3D56"/>
<path d="M1025.17 716.565C1031.87 716.565 1037.3 709.454 1037.3 700.683C1037.3 691.911 1031.87 684.801 1025.17 684.801C1018.47 684.801 1013.05 691.911 1013.05 700.683C1013.05 709.454 1018.47 716.565 1025.17 716.565Z" fill="#3F3D56"/>
<path d="M1025.17 697.157C1031.87 697.157 1037.3 690.046 1037.3 681.275C1037.3 672.503 1031.87 665.393 1025.17 665.393C1018.47 665.393 1013.05 672.503 1013.05 681.275C1013.05 690.046 1018.47 697.157 1025.17 697.157Z" fill="#3F3D56"/>
<path d="M1070.57 548.452C1072.23 546.344 1073.74 544.123 1075.09 541.805L1043.22 536.571L1077.69 536.82C1080.99 529.625 1082.8 521.831 1082.99 513.915C1083.19 505.999 1081.77 498.126 1078.82 490.778L1032.59 514.777L1075.2 483.419C1071.21 476.507 1065.84 470.492 1059.42 465.749C1053 461.005 1045.67 457.635 1037.9 455.849C1030.12 454.063 1022.06 453.898 1014.21 455.366C1006.37 456.834 998.909 459.902 992.303 464.38C985.696 468.858 980.083 474.649 975.813 481.392C971.543 488.136 968.707 495.687 967.483 503.575C966.259 511.463 966.672 519.518 968.698 527.239C970.723 534.96 974.317 542.181 979.255 548.452C976.672 551.733 974.452 555.284 972.633 559.043L1014 580.521L969.921 565.713C966.826 574.87 966.062 584.655 967.698 594.182C969.333 603.709 973.317 612.678 979.289 620.278C972.55 628.848 968.358 639.142 967.191 649.984C966.025 660.825 967.933 671.776 972.695 681.584C977.458 691.392 984.884 699.662 994.124 705.448C1003.36 711.234 1014.04 714.302 1024.95 714.302C1035.85 714.302 1046.53 711.234 1055.77 705.448C1065.01 699.662 1072.43 691.392 1077.2 681.584C1081.96 671.776 1083.87 660.825 1082.7 649.984C1081.53 639.142 1077.34 628.848 1070.6 620.278C1078.66 610.035 1083.03 597.383 1083.03 584.353C1083.03 571.323 1078.66 558.671 1070.6 548.429L1070.57 548.452Z" fill="#6C63FF"/>
<path opacity="0.1" d="M966.824 584.376C966.802 597.41 971.183 610.069 979.256 620.3C972.516 628.871 968.324 639.165 967.158 650.006C965.992 660.848 967.899 671.799 972.662 681.607C977.424 691.415 984.85 699.685 994.09 705.47C1003.33 711.256 1014.01 714.324 1024.91 714.324C1035.81 714.324 1046.49 711.256 1055.73 705.47C1064.97 699.685 1072.4 691.415 1077.16 681.607C1081.93 671.799 1083.83 660.848 1082.67 650.006C1081.5 639.165 1077.31 628.871 1070.57 620.3C1078.36 610.42 966.824 577.853 966.824 584.376Z" fill="black"/>
<path d="M996.173 0V813.894L720.425 775.46L385.222 843.861L382.521 844.415L115.814 770.938V63.3029L392.692 0L695.563 63.3029L707.078 60.8725L996.173 0Z" fill="#444053"/>
<path d="M949.839 44.4473V772.668L703.123 738.28L403.202 799.481L400.784 799.967L162.149 734.234V101.081L409.892 44.4473L680.871 101.081L691.178 98.9103L949.839 44.4473Z" fill="white"/>
<path opacity="0.1" d="M720.425 775.46L385.222 843.861L392.692 0L695.563 63.3029L707.079 60.8725L720.425 775.46Z" fill="black"/>
<g opacity="0.3">
<path opacity="0.3" d="M686.951 155.996L687.087 392.817H785.407V295.601H953.794L973.571 270.235" stroke="#444053" stroke-width="3" stroke-miterlimit="10"/>
<path opacity="0.3" d="M139.546 231.168H505.138L527.741 220.994H536.782V449.337H694.998L701.778 469.684V572.551H823.831V699.722" stroke="#444053" stroke-width="3" stroke-miterlimit="10"/>
<path opacity="0.3" d="M585.071 699.723V449.338" stroke="#444053" stroke-width="3" stroke-miterlimit="10"/>
<path opacity="0.3" d="M973.571 632.645H585.071" stroke="#444053" stroke-width="3" stroke-miterlimit="10"/>
<path opacity="0.3" d="M876.268 155.996V699.722" stroke="#444053" stroke-width="3" stroke-miterlimit="10"/>
<path opacity="0.3" d="M138.416 584.578H973.571" stroke="#444053" stroke-width="3" stroke-miterlimit="10"/>
<path opacity="0.3" d="M240.059 699.722V155.996" stroke="#444053" stroke-width="3" stroke-miterlimit="10"/>
<path opacity="0.3" d="M434.19 155.996V699.722" stroke="#444053" stroke-width="3" stroke-miterlimit="10"/>
<path opacity="0.3" d="M139.546 293.34L785.407 295.601" stroke="#444053" stroke-width="3" stroke-miterlimit="10"/>
<path opacity="0.3" d="M327.518 156.98V699.724" stroke="#444053" stroke-width="3" stroke-miterlimit="10"/>
<path opacity="0.3" d="M138.416 419.178H434.19L585.071 584.579" stroke="#444053" stroke-width="3" stroke-miterlimit="10"/>
<path opacity="0.3" d="M617.754 155.996V449.337" stroke="#444053" stroke-width="3" stroke-miterlimit="10"/>
<path opacity="0.3" d="M585.071 501.879H973.571" stroke="#444053" stroke-width="3" stroke-miterlimit="10"/>
</g>
<path d="M644.708 250.951C628.139 250.951 612.249 257.535 600.533 269.254C588.817 280.973 582.235 296.867 582.235 313.44C582.235 347.952 644.708 460.077 644.708 460.077C644.708 460.077 707.18 347.997 707.18 313.44C707.18 296.867 700.598 280.973 688.883 269.254C677.167 257.535 661.276 250.951 644.708 250.951V250.951ZM644.708 340.095C639.272 340.095 633.958 338.483 629.438 335.462C624.918 332.441 621.396 328.148 619.315 323.124C617.235 318.101 616.691 312.573 617.751 307.24C618.812 301.907 621.429 297.009 625.273 293.164C629.117 289.319 634.014 286.701 639.346 285.64C644.677 284.58 650.203 285.124 655.225 287.205C660.248 289.286 664.54 292.809 667.56 297.33C670.58 301.851 672.192 307.166 672.192 312.604C672.189 319.893 669.292 326.883 664.138 332.036C658.984 337.189 651.995 340.084 644.708 340.084V340.095Z" fill="#6C63FF"/>
<path opacity="0.1" d="M623.533 843.37C642.708 835.11 655.494 822.008 652.092 814.107C648.69 806.205 630.388 806.496 611.213 814.756C592.038 823.017 579.251 836.118 582.653 844.02C586.055 851.921 604.358 851.63 623.533 843.37Z" fill="#6C63FF"/>
<path d="M616.929 833.846C621.548 833.846 625.292 828.947 625.292 822.903C625.292 816.86 621.548 811.961 616.929 811.961C612.311 811.961 608.567 816.86 608.567 822.903C608.567 828.947 612.311 833.846 616.929 833.846Z" fill="#3F3D56"/>
<path d="M616.929 820.461C621.548 820.461 625.292 815.562 625.292 809.519C625.292 803.475 621.548 798.576 616.929 798.576C612.311 798.576 608.567 803.475 608.567 809.519C608.567 815.562 612.311 820.461 616.929 820.461Z" fill="#3F3D56"/>
<path d="M616.929 807.088C621.548 807.088 625.292 802.189 625.292 796.145C625.292 790.102 621.548 785.203 616.929 785.203C612.311 785.203 608.567 790.102 608.567 796.145C608.567 802.189 612.311 807.088 616.929 807.088Z" fill="#3F3D56"/>
<path d="M616.929 793.717C621.548 793.717 625.292 788.818 625.292 782.774C625.292 776.731 621.548 771.832 616.929 771.832C612.311 771.832 608.567 776.731 608.567 782.774C608.567 788.818 612.311 793.717 616.929 793.717Z" fill="#3F3D56"/>
<path d="M616.929 780.332C621.548 780.332 625.292 775.433 625.292 769.39C625.292 763.346 621.548 758.447 616.929 758.447C612.311 758.447 608.567 763.346 608.567 769.39C608.567 775.433 612.311 780.332 616.929 780.332Z" fill="#3F3D56"/>
<path d="M616.929 766.959C621.548 766.959 625.292 762.06 625.292 756.017C625.292 749.973 621.548 745.074 616.929 745.074C612.311 745.074 608.567 749.973 608.567 756.017C608.567 762.06 612.311 766.959 616.929 766.959Z" fill="#3F3D56"/>
<path d="M616.929 753.586C621.548 753.586 625.292 748.687 625.292 742.644C625.292 736.6 621.548 731.701 616.929 731.701C612.311 731.701 608.567 736.6 608.567 742.644C608.567 748.687 612.311 753.586 616.929 753.586Z" fill="#3F3D56"/>
<path d="M585.636 651.092C584.496 649.656 583.454 648.146 582.517 646.57L604.487 642.953L580.754 643.134C578.479 638.174 577.237 632.803 577.105 627.347C576.973 621.892 577.953 616.467 579.986 611.403L611.855 627.884L582.472 606.271C585.224 601.509 588.927 597.365 593.351 594.097C597.774 590.829 602.823 588.508 608.183 587.278C613.542 586.048 619.098 585.935 624.503 586.947C629.908 587.959 635.047 590.074 639.599 593.159C644.152 596.245 648.019 600.236 650.962 604.882C653.905 609.529 655.859 614.732 656.703 620.167C657.547 625.602 657.263 631.153 655.868 636.474C654.473 641.794 651.997 646.77 648.595 651.092C650.358 653.357 651.874 655.805 653.116 658.394L624.625 673.214L655.026 663.04C657.16 669.351 657.688 676.095 656.562 682.662C655.435 689.229 652.689 695.411 648.573 700.649C653.219 706.556 656.11 713.652 656.914 721.125C657.719 728.599 656.405 736.148 653.122 742.909C649.839 749.67 644.721 755.371 638.351 759.36C631.982 763.348 624.619 765.464 617.105 765.464C609.59 765.464 602.227 763.348 595.858 759.36C589.488 755.371 584.37 749.67 581.087 742.909C577.804 736.148 576.49 728.599 577.295 721.125C578.099 713.652 580.99 706.556 585.636 700.649C580.087 693.589 577.07 684.868 577.07 675.887C577.07 666.906 580.087 658.186 585.636 651.126V651.092Z" fill="#6C63FF"/>
<path opacity="0.1" d="M657.139 675.814C657.154 684.8 654.136 693.527 648.573 700.582C653.219 706.489 656.11 713.585 656.914 721.058C657.719 728.532 656.405 736.081 653.122 742.842C649.839 749.603 644.721 755.304 638.351 759.293C631.982 763.281 624.619 765.397 617.105 765.397C609.59 765.397 602.227 763.281 595.858 759.293C589.488 755.304 584.37 749.603 581.087 742.842C577.804 736.081 576.49 728.532 577.295 721.058C578.099 713.585 580.99 706.489 585.636 700.582C580.268 693.799 657.139 671.361 657.139 675.814Z" fill="black"/>
<path opacity="0.1" d="M132.246 823.951C141.068 815.127 130.857 790.605 109.439 769.182C88.0209 747.758 63.5062 737.545 54.6838 746.369C45.8615 755.194 56.0724 779.715 77.4905 801.139C98.9086 822.562 123.423 832.776 132.246 823.951Z" fill="#6C63FF"/>
<path d="M97.3478 788.743C104.045 788.743 109.474 781.632 109.474 772.861C109.474 764.089 104.045 756.979 97.3478 756.979C90.6507 756.979 85.2217 764.089 85.2217 772.861C85.2217 781.632 90.6507 788.743 97.3478 788.743Z" fill="#3F3D56"/>
<path d="M97.3478 769.333C104.045 769.333 109.474 762.222 109.474 753.451C109.474 744.679 104.045 737.568 97.3478 737.568C90.6507 737.568 85.2217 744.679 85.2217 753.451C85.2217 762.222 90.6507 769.333 97.3478 769.333Z" fill="#3F3D56"/>
<path d="M97.3478 749.925C104.045 749.925 109.474 742.814 109.474 734.042C109.474 725.271 104.045 718.16 97.3478 718.16C90.6507 718.16 85.2217 725.271 85.2217 734.042C85.2217 742.814 90.6507 749.925 97.3478 749.925Z" fill="#3F3D56"/>
<path d="M97.3478 730.515C104.045 730.515 109.474 723.404 109.474 714.632C109.474 705.861 104.045 698.75 97.3478 698.75C90.6507 698.75 85.2217 705.861 85.2217 714.632C85.2217 723.404 90.6507 730.515 97.3478 730.515Z" fill="#3F3D56"/>
<path d="M97.3478 711.106C104.045 711.106 109.474 703.996 109.474 695.224C109.474 686.453 104.045 679.342 97.3478 679.342C90.6507 679.342 85.2217 686.453 85.2217 695.224C85.2217 703.996 90.6507 711.106 97.3478 711.106Z" fill="#3F3D56"/>
<path d="M97.3478 691.696C104.045 691.696 109.474 684.585 109.474 675.814C109.474 667.042 104.045 659.932 97.3478 659.932C90.6507 659.932 85.2217 667.042 85.2217 675.814C85.2217 684.585 90.6507 691.696 97.3478 691.696Z" fill="#3F3D56"/>
<path d="M97.3478 672.288C104.045 672.288 109.474 665.177 109.474 656.406C109.474 647.634 104.045 640.523 97.3478 640.523C90.6507 640.523 85.2217 647.634 85.2217 656.406C85.2217 665.177 90.6507 672.288 97.3478 672.288Z" fill="#3F3D56"/>
<path d="M142.745 523.582C144.404 521.474 145.914 519.253 147.265 516.936L115.396 511.702L149.864 511.95C153.171 504.756 154.976 496.962 155.171 489.046C155.365 481.13 153.944 473.257 150.994 465.909L104.761 489.908L147.378 458.55C143.386 451.638 138.013 445.623 131.595 440.879C125.176 436.136 117.85 432.766 110.072 430.98C102.294 429.193 94.2315 429.029 86.3872 430.497C78.543 431.964 71.0851 435.033 64.4787 439.511C57.8723 443.989 52.2589 449.78 47.9886 456.523C43.7184 463.267 40.8827 470.818 39.6586 478.706C38.4344 486.593 38.848 494.649 40.8735 502.37C42.8989 510.091 46.4929 517.312 51.4313 523.582C48.8479 526.863 46.6275 530.415 44.8088 534.174L86.171 555.652L42.0965 540.844C39.0018 550.001 38.2378 559.786 39.8735 569.313C41.5093 578.84 45.4933 587.809 51.4652 595.408C44.7257 603.979 40.5333 614.273 39.3672 625.115C38.2011 635.956 40.1085 646.907 44.8712 656.715C49.6339 666.523 57.0597 674.793 66.2996 680.579C75.5396 686.365 86.2207 689.433 97.1218 689.433C108.023 689.433 118.704 686.365 127.944 680.579C137.184 674.793 144.61 666.523 149.372 656.715C154.135 646.907 156.042 635.956 154.876 625.115C153.71 614.273 149.518 603.979 142.778 595.408C150.831 585.166 155.209 572.514 155.209 559.484C155.209 546.454 150.831 533.802 142.778 523.56L142.745 523.582Z" fill="#6C63FF"/>
<path opacity="0.1" d="M39 559.507C38.9781 572.54 43.3587 585.2 51.4312 595.431C44.6918 604.001 40.4993 614.296 39.3332 625.137C38.1672 635.979 40.0745 646.929 44.8372 656.738C49.5999 666.546 57.0257 674.815 66.2657 680.601C75.5056 686.387 86.1867 689.455 97.0878 689.455C107.989 689.455 118.67 686.387 127.91 680.601C137.15 674.815 144.576 666.546 149.338 656.738C154.101 646.929 156.009 635.979 154.842 625.137C153.676 614.296 149.484 604.001 142.744 595.431C150.531 585.551 39 552.984 39 559.507Z" fill="black"/>
<path d="M879.805 414.057V275.244L675.533 273.658L674.023 256.604H609.834C596.016 261.221 588.558 262.518 575.852 262.156L506.754 274.451C496.68 288.369 491.421 294.719 482.211 305.386L486.742 315.302L490.518 343.461L495.049 350.996L500.713 373.603C495.458 378.516 491.212 378.944 482.211 377.173C478.899 387.179 478.679 393.596 478.058 404.935L467.863 410.884L458.046 400.572V397.796L434.259 371.62L425.197 395.02C402.627 395.798 365.539 386.295 358.365 380.345C344.51 362.257 334.029 354.586 309.279 346.237L303.615 337.115C291.734 348.657 286.56 352.974 279.072 358.135L270.388 380.345L268.5 431.905C270.218 479.134 255.662 480.291 231.12 492.586L234.364 584.745L238.132 617.204L351.169 607.774C352.676 585.896 355.314 579.107 364.357 568.922C364.357 565.653 364.937 558.964 364.937 558.361C367.25 555.465 368.205 553.442 369.255 549.308L369.632 545.536L372.269 540.255L375.284 532.712C376.414 529.074 379.052 529.074 382.53 530.66C386.73 532.044 389.952 532.008 397.256 529.867L401.598 529.074L405.94 528.28C412.339 521.043 420.19 520.604 433.881 519.555L446.719 514.796C461.028 513.164 468.141 510.619 478.813 502.501L493.917 496.948L510.53 490.999L522.99 486.637L531.675 483.86L538.094 480.291L547.911 472.359L552.819 469.582L561.881 464.823L570.566 463.633L580.383 456.098L581.138 450.942C582.222 446.941 584.459 444.945 588.69 441.423H592.088L600.017 435.871L607.191 435.077L610.967 433.491L620.407 429.128H625.315C625.617 429.128 629.217 427.277 630.979 426.352L637.775 422.783L642.684 420.403L659.675 417.627L660.808 420.403L675.156 415.644H681.575L675.156 408.108H737.079L743.498 414.057H879.805Z" fill="#6C63FF"/>
<path d="M557.158 169.561C543.52 169.561 530.441 175.005 520.798 184.697C511.155 194.389 505.737 207.534 505.737 221.241C505.737 249.782 557.158 342.513 557.158 342.513C557.158 342.513 608.578 249.82 608.578 221.241C608.578 207.534 603.16 194.389 593.517 184.697C583.874 175.005 570.795 169.561 557.158 169.561V169.561ZM557.158 243.285C552.683 243.285 548.31 241.952 544.589 239.453C540.869 236.955 537.97 233.404 536.258 229.25C534.545 225.095 534.097 220.524 534.97 216.113C535.843 211.703 537.998 207.652 541.161 204.472C544.325 201.292 548.356 199.127 552.744 198.249C557.132 197.372 561.681 197.822 565.815 199.543C569.948 201.264 573.481 204.178 575.967 207.917C578.453 211.656 579.779 216.052 579.779 220.549C579.777 226.577 577.393 232.358 573.15 236.62C568.908 240.882 563.156 243.276 557.158 243.276V243.285Z" fill="#444053"/>
</g>
</g>
<defs>
<clipPath id="clip0">
<rect width="1121.04" height="851.8" fill="white"/>
</clipPath>
<clipPath id="clip1">
<rect width="1044" height="852" fill="white" transform="translate(39)"/>
</clipPath>
</defs>
</svg>
